<?xml version="1.0" encoding="UTF-8" standalone="no"?>
<svg
   width="19"
   height="17"
   viewBox="0 0 19 17"
   fill="none"
   version="1.1"
   id="svg1"
   sodipodi:docname="icon-like-lighter-filled.svg"
   inkscape:version="1.3.2 (091e20e, 2023-11-25, custom)"
   xmlns:inkscape="http://www.inkscape.org/namespaces/inkscape"
   xmlns:sodipodi="http://sodipodi.sourceforge.net/DTD/sodipodi-0.dtd"
   xmlns="http://www.w3.org/2000/svg"
   xmlns:svg="http://www.w3.org/2000/svg">
  <defs
     id="defs1" />
  <sodipodi:namedview
     id="namedview1"
     pagecolor="#ffffff"
     bordercolor="#000000"
     borderopacity="0.25"
     inkscape:showpageshadow="2"
     inkscape:pageopacity="0.0"
     inkscape:pagecheckerboard="0"
     inkscape:deskcolor="#d1d1d1"
     inkscape:zoom="48.294118"
     inkscape:cx="9.4939099"
     inkscape:cy="10.156516"
     inkscape:window-width="1920"
     inkscape:window-height="1017"
     inkscape:window-x="-8"
     inkscape:window-y="-8"
     inkscape:window-maximized="1"
     inkscape:current-layer="svg1" />
  <path
     d="M10.4712 4.005L9.9725 6.53375C9.8675 7.05 10.0075 7.58375 10.34 7.98625C10.6725 8.38875 11.1625 8.625 11.6875 8.625H16.5V9.57L14.2513 14.75H7.1725C7.015 14.75 6.875 14.61 6.875 14.4525V7.5925L10.4712 4.005V4.005ZM11.25 0.75L5.64125 6.35875C5.30875 6.69125 5.125 7.1375 5.125 7.60125V14.4525C5.125 15.5812 6.04375 16.5 7.1725 16.5H14.26C14.8813 16.5 15.45 16.1763 15.765 15.6513L18.1012 10.27C18.1975 10.0513 18.25 9.815 18.25 9.57V8.625C18.25 7.6625 17.4625 6.875 16.5 6.875H11.6875L12.4925 2.80625C12.5363 2.61375 12.51 2.40375 12.4225 2.22875C12.2213 1.835 11.9675 1.47625 11.6525 1.16125L11.25 0.75ZM2.5 6.875H0.75V16.5H2.5C2.98125 16.5 3.375 16.1063 3.375 15.625V7.75C3.375 7.26875 2.98125 6.875 2.5 6.875Z"
     fill="#AFAFAF"
     id="path1" />
  <path
     style="fill:#afafaf;fill-opacity:1;stroke-width:0.0207065"
     d="M 7.0256703,14.692102 C 6.8850484,14.606289 6.8952497,14.890119 6.8952497,11.063407 V 7.5991783 L 8.6656516,5.8288672 c 1.0371866,-1.0371334 1.7704024,-1.7551726 1.7704024,-1.733758 0,0.020104 -0.109404,0.583817 -0.243118,1.2526951 L 9.9498174,6.5639464 9.9496347,6.8848965 c -1.59e-4,0.2790834 0.00615,0.341208 0.048383,0.4762484 0.1406633,0.4497993 0.4387023,0.8253931 0.8347803,1.052006 0.18152,0.1038553 0.469278,0.1899227 0.706519,0.2113175 0.116378,0.010495 1.276167,0.019396 2.577309,0.019779 l 2.365713,6.974e-4 -4.44e-4,0.4710719 -4.43e-4,0.4710718 -1.11515,2.5676005 -1.115151,2.567601 -3.579595,0.0051 c -3.5195669,0.005 -3.5807065,0.0045 -3.6458856,-0.03532 z"
     id="path2" />
  <path
     style="fill:#afafaf;fill-opacity:1;stroke-width:0.0207065"
     d=""
     id="path3" />
  <path
     style="fill:#afafaf;fill-opacity:1;stroke-width:0.0207065"
     d="M 6.8848965,16.470125 C 6.4660128,16.409605 6.0355507,16.189945 5.7283404,15.879946 5.483142,15.632522 5.2863115,15.286319 5.1932648,14.938806 l -0.046884,-0.175103 -0.00659,-3.62363 C 5.1351339,8.5833108 5.1398957,7.4693492 5.1559602,7.3564872 5.194143,7.088232 5.2864903,6.8534324 5.4513806,6.6053593 5.5046352,6.5252392 6.5476388,5.4664194 8.3885003,3.6237012 L 11.24304,0.76628186 11.472849,0.99398137 c 0.555423,0.55032513 0.95535,1.13915853 1.016704,1.49694583 l 0.02561,0.1493511 -0.410079,2.0757197 C 11.87954,5.8576436 11.690267,6.8126827 11.684478,6.8383069 l -0.01053,0.04659 2.492196,2.721e-4 c 2.863865,3.124e-4 2.704471,-0.00916 3.092684,0.1838486 0.434369,0.2159599 0.734718,0.5591951 0.890745,1.0179362 0.08358,0.2457473 0.09716,0.4169872 0.08783,1.1081192 -0.0077,0.5671577 -0.01356,0.6582752 -0.05152,0.7957922 -0.05195,0.1881858 -2.410218,5.6286308 -2.490882,5.7463908 -0.222058,0.324179 -0.549275,0.55705 -0.96674,0.688001 l -0.181975,0.05708 -3.768575,0.0029 c -2.0727161,0.0016 -3.8244822,-0.0052 -3.8928135,-0.01508 z m 7.3879985,-1.742658 c 0.0058,-0.01424 0.509982,-1.175797 1.120364,-2.581247 L 16.503045,9.5908569 V 9.1083946 8.6259323 L 13.971681,8.619399 11.440317,8.6128657 11.274665,8.566991 C 10.569604,8.3717355 10.047329,7.7807296 9.9620234,7.0816078 l -0.017686,-0.1449452 -0.00231,0.1138855 c -0.00495,0.2439055 0.1387546,0.6199641 0.3384196,0.885577 0.125953,0.167555 0.340116,0.3622056 0.507619,0.4613711 0.167115,0.098935 0.455785,0.1961113 0.669282,0.2253026 0.107362,0.014679 0.98222,0.022146 2.594795,0.022146 h 2.432823 l -0.01378,0.4814251 -0.01377,0.4814251 -1.104644,2.546894 -1.104644,2.546894 -3.526315,0.006 c -1.9394735,0.0033 -3.563587,5.29e-4 -3.6091412,-0.0061 -0.1198189,-0.01754 -0.1543997,-0.05255 -0.1765833,-0.178787 -0.011276,-0.06417 -0.025157,-1.542801 -0.032921,-3.506808 L 6.8897402,7.6199756 8.6456999,5.8704555 C 9.6114778,4.9082193 10.404991,4.1309302 10.409063,4.1431464 c 0.0041,0.012216 -0.100004,0.5629216 -0.23128,1.2237898 -0.158975,0.8003062 -0.2378074,1.2423062 -0.2360588,1.3235333 l 0.00263,0.1219544 0.016265,-0.1242388 c 0.00895,-0.068331 0.1293228,-0.696088 0.2675038,-1.395015 0.138181,-0.6989269 0.245776,-1.2762387 0.2391,-1.282915 -0.0067,-0.00668 -0.8178193,0.7934616 -1.8025397,1.7780844 l -1.7904008,1.7902232 0.00531,3.5023953 c 0.00526,3.469259 0.0057,3.502836 0.046722,3.548945 0.022777,0.0256 0.069367,0.06382 0.1035323,0.08492 0.05985,0.03697 0.1930926,0.03837 3.6472972,0.03845 2.848755,6.2e-5 3.587351,-0.0052 3.595756,-0.02581 z"
     id="path4" />
  <path
     style="fill:#afafaf;fill-opacity:1;stroke-width:0.0207065"
     d="m 6.8813379,8.1997564 c 9.18e-5,-0.07972 0.00383,-0.1097952 0.00832,-0.066834 0.00448,0.042961 0.00441,0.1081864 -1.67e-4,0.1449451 -0.00457,0.036759 -0.00824,0.00161 -0.00815,-0.078111 z"
     id="path5" />
  <path
     style="fill:#afafaf;fill-opacity:1;stroke-width:0.0207065"
     d="M 6.9366626,16.478388 C 6.6516964,16.446516 6.2414601,16.286607 5.9968374,16.112048 5.6222285,15.844733 5.338338,15.438576 5.2021647,14.975125 l -0.056037,-0.190716 -0.00647,-3.633983 C 5.1350984,8.5868236 5.1398995,7.4693287 5.1559607,7.3564872 5.1941425,7.0882334 5.2864898,6.853433 5.4513806,6.6053593 5.5046352,6.5252392 6.5476388,5.4664194 8.3885003,3.6237012 L 11.24304,0.76628186 11.472849,0.99398137 c 0.554948,0.54985393 0.955358,1.13920163 1.016589,1.49627753 0.02872,0.1674983 0.09093,-0.1789158 -0.551127,3.0692635 -0.142928,0.7230846 -0.25987,1.3168552 -0.25987,1.3194903 0,0.00264 1.153091,0.00752 2.562424,0.010846 l 2.562424,0.00605 0.154498,0.047543 c 0.343073,0.1055727 0.68183,0.3293179 0.891156,0.5885994 0.125735,0.155742 0.292953,0.4892919 0.345118,0.6884071 0.03339,0.1274571 0.03797,0.2336346 0.03797,0.8800243 0,0.6983376 -0.0023,0.7430124 -0.04604,0.8937989 -0.02532,0.087296 -0.29401,0.7302306 -0.597078,1.4287456 -1.772178,4.084531 -1.837668,4.232704 -1.925822,4.357239 -0.208939,0.295168 -0.544193,0.525815 -0.951331,0.654493 l -0.144768,0.04575 -3.778928,0.003 c -2.0784101,0.0016 -3.8115405,-6.59e-4 -3.8514004,-0.0051 z m 7.3256944,-1.750921 c 0.01176,-0.01424 0.16288,-0.35201 0.335815,-0.75061 1.003753,-2.313546 1.219414,-2.810266 1.545388,-3.559404 L 16.503045,9.5913012 V 9.1086845 8.6260679 l -2.541717,-0.00647 -2.541718,-0.00647 -0.185336,-0.057674 C 10.54333,8.3404356 10.055935,7.7808058 9.9596898,7.091961 l -0.018805,-0.1345919 0.00884,0.1552984 c 0.014934,0.2623218 0.1500972,0.5882648 0.3514472,0.8475115 0.24009,0.3091262 0.527852,0.5009633 0.925015,0.6166645 l 0.193422,0.056347 2.534394,0.00665 2.534393,0.00665 -0.01392,0.4806476 -0.01392,0.4806476 -0.453743,1.0456753 c -0.249558,0.575122 -0.747185,1.721224 -1.105836,2.546894 l -0.652094,1.501218 -3.555323,0.0052 c -2.4408068,0.0036 -3.5807126,-0.0016 -3.6363142,-0.01657 -0.056898,-0.01532 -0.08817,-0.03844 -0.1051247,-0.07771 -0.032988,-0.07641 -0.046157,-1.166799 -0.052832,-4.374209 L 6.8938388,7.6179489 8.6477493,5.8694422 C 9.6124001,4.9077633 10.404931,4.1307488 10.408929,4.1427433 c 0.004,0.011994 -0.09607,0.5430361 -0.222367,1.1800927 -0.1263,0.6370565 -0.2330204,1.2235099 -0.2371567,1.3032298 -0.00414,0.07972 -0.00311,0.1169914 0.00229,0.082826 0.00539,-0.034166 0.033844,-0.1832521 0.063221,-0.3313033 0.02938,-0.1480512 0.05545,-0.2924787 0.05794,-0.3209501 0.0025,-0.028471 0.0101,-0.065743 0.01691,-0.082826 0.02392,-0.060022 0.387404,-1.9536056 0.377004,-1.9640056 -0.0058,-0.00579 -0.8164062,0.7945384 -1.8013746,1.7785021 l -1.7908519,1.7890247 0.00175,3.3964734 c 9.61e-4,1.86806 0.00841,3.449793 0.016558,3.514961 0.016752,0.134018 0.074118,0.212484 0.1772653,0.242461 0.035645,0.01036 1.6146286,0.0192 3.6170582,0.02025 2.819658,0.0015 3.558217,-0.0035 3.575185,-0.02401 z"
     id="path6" />
  <path
     style="fill:#afafaf;fill-opacity:1;stroke-width:0.0207065"
     d="M 6.9573691,16.479494 C 6.6528831,16.432492 6.4905597,16.382868 6.2533496,16.26427 5.73966,16.00744 5.3651304,15.542789 5.193223,14.949049 l -0.047669,-0.16464 v -3.727162 c 0,-3.5736207 0.00159,-3.7331329 0.038674,-3.8721069 C 5.2335323,7.0003515 5.3336514,6.7815098 5.4458931,6.6131886 5.5057831,6.5233756 6.4472696,5.56689 8.3885003,3.6237012 L 11.24304,0.76628186 11.472849,0.99398137 c 0.67542,0.66922063 1.070846,1.32030183 1.026953,1.69090923 -0.0064,0.054037 -0.142209,0.757914 -0.301799,1.5641704 -0.15959,0.8062563 -0.337746,1.7081863 -0.395901,2.0042886 -0.05816,0.2961023 -0.11071,0.5590542 -0.116788,0.5843376 l -0.01105,0.04597 2.574866,0.0058 2.574866,0.0058 0.144945,0.048993 c 0.527493,0.1782975 0.887953,0.4915005 1.109321,0.9638868 0.147278,0.314283 0.153773,0.3646462 0.153773,1.192358 0,0.699808 -0.0022,0.7427497 -0.04636,0.8949405 -0.04312,0.1486925 -0.143114,0.3860885 -0.761245,1.8072525 -0.128789,0.296102 -0.357167,0.822564 -0.507507,1.169914 -0.15034,0.347351 -0.350456,0.808587 -0.444703,1.02497 -0.09425,0.216382 -0.294803,0.677619 -0.445681,1.024969 -0.170396,0.39229 -0.308125,0.679354 -0.363549,0.757738 -0.208257,0.294531 -0.54177,0.524195 -0.951799,0.65543 l -0.144201,0.04615 -3.778928,0.0028 c -2.0784101,0.0015 -3.8022226,-7.81e-4 -3.8306939,-0.0052 z M 14.233371,14.73509 c 0.04475,-0.01757 -0.02196,0.131785 1.240434,-2.777112 0.506594,-1.167326 0.945416,-2.1771489 0.97516,-2.2440502 0.04242,-0.095412 0.05408,-0.1545679 0.05408,-0.2743606 0,-0.08801 -0.0088,-0.1527219 -0.02071,-0.1527219 -0.01204,0 -0.02065,0.067207 -0.02057,0.160475 l 1.34e-4,0.1604751 -0.382073,0.8800246 c -0.210141,0.484013 -0.707928,1.630115 -1.106196,2.546894 l -0.724122,1.666869 -3.555635,0.0052 c -2.4410242,0.0036 -3.5810233,-0.0016 -3.636625,-0.01657 -0.057127,-0.01538 -0.087981,-0.03828 -0.1047136,-0.07771 -0.034398,-0.08105 -0.04594,-0.9852 -0.053584,-4.19752 L 6.8922975,7.6193176 8.6470303,5.8702814 c 0.9651029,-0.96197 1.7579547,-1.7393706 1.7618927,-1.7275572 0.0039,0.011813 -0.07752,0.4496063 -0.181009,0.9728731 -0.214639,1.0852297 -0.2888501,1.4862347 -0.2772069,1.4979023 0.014533,0.014564 0.024946,-0.035234 0.2571649,-1.2298212 0.12619,-0.6491473 0.237814,-1.2220801 0.248053,-1.2731838 0.01024,-0.051103 0.01489,-0.096637 0.01035,-0.1011862 -0.0045,-0.00455 -0.8145481,0.7960377 -1.799999,1.779081 l -1.7917288,1.7873517 0.00147,3.3558569 c 8.103e-4,1.845721 0.00805,3.42811 0.016089,3.51642 0.012218,0.13422 0.023436,0.169384 0.068371,0.214319 0.029565,0.02956 0.085221,0.06118 0.1236791,0.07026 0.088278,0.02084 7.0962487,0.02328 7.1492147,0.0025 z m -2.58599,-6.1108513 c -0.007,-0.011388 -0.06245,-0.020706 -0.123144,-0.020706 -0.253253,0 -0.674787,-0.173957 -0.928351,-0.3831084 -0.321659,-0.265319 -0.523363,-0.599942 -0.6178072,-1.0249306 -0.036723,-0.1652485 -0.038386,-0.1684122 -0.027207,-0.051766 0.027512,0.2870751 0.2107852,0.6669325 0.4492722,0.9311724 0.276263,0.3060963 0.679056,0.5068555 1.102292,0.5494017 0.07972,0.00801 0.147825,0.015937 0.151344,0.017607 0.0035,0.00167 6.4e-4,-0.00628 -0.0064,-0.01767 z"
     id="path7" />
  <path
     style="fill:#afafaf;fill-opacity:1;stroke-width:0.0207065"
     d="M 6.9573691,16.479519 C 6.6412037,16.430559 6.4852352,16.381703 6.2324582,16.252446 5.7329724,15.997036 5.377163,15.5544 5.1937873,14.960314 l -0.047905,-0.155198 -0.00573,-3.663982 C 5.1338275,7.1000811 5.1287453,7.2745131 5.262142,6.95408 5.4101524,6.598543 5.3333524,6.6803745 8.3877491,3.6237012 L 11.24304,0.76628186 11.472849,0.99398137 c 0.676116,0.66991023 1.070852,1.32025793 1.026849,1.69178843 -0.0065,0.054521 -0.06756,0.3810223 -0.13579,0.7255589 -0.06823,0.3445366 -0.246278,1.2460708 -0.395669,2.0034094 -0.14939,0.7573386 -0.276649,1.3976657 -0.282798,1.4229491 l -0.01118,0.04597 2.574866,0.0058 2.574866,0.0058 0.144945,0.048947 c 0.526228,0.1777042 0.876557,0.4796847 1.105351,0.9528015 0.146645,0.3032429 0.157743,0.3886446 0.157743,1.213842 0,0.6311678 -0.0048,0.742101 -0.03692,0.8593179 -0.03921,0.1429434 -0.14158,0.3866234 -0.791612,1.8842874 -0.224905,0.518179 -0.513871,1.184409 -0.642146,1.480511 -0.128275,0.296103 -0.379698,0.873813 -0.558717,1.283801 -0.17902,0.409987 -0.353572,0.810657 -0.387893,0.890377 -0.182888,0.4248 -0.537275,0.7294 -1.066077,0.916306 l -0.160975,0.0569 -3.789281,0.0026 c -2.0841052,0.0014 -3.8125766,-10e-4 -3.8410479,-0.0054 z M 14.26718,14.711937 c 0.02668,-0.04222 0.110364,-0.232881 0.863436,-1.967114 1.519309,-3.4987866 1.37247,-3.1439131 1.372112,-3.3160587 -2.21e-4,-0.1059587 -0.0064,-0.1428255 -0.02039,-0.1212125 -0.01104,0.017083 -0.02022,0.092291 -0.02039,0.1671303 -3.11e-4,0.1334268 -0.01726,0.1750687 -0.872135,2.1431179 -0.479499,1.103876 -0.976752,2.249313 -1.105005,2.545416 l -0.233188,0.538367 -3.556691,0.0052 c -2.4417646,0.0036 -3.5820799,-0.0016 -3.637682,-0.01657 -0.057127,-0.01538 -0.087981,-0.03828 -0.1047136,-0.07771 -0.03446,-0.0812 -0.04601,-0.988865 -0.053413,-4.197615 L 6.8926703,7.6191267 8.6471635,5.8700261 c 0.9649711,-0.9620054 1.7577275,-1.7393978 1.7616805,-1.727539 0.004,0.011859 -0.06324,0.3798396 -0.149305,0.8177346 -0.23464,1.1937611 -0.318766,1.6433608 -0.3092709,1.6528559 0.014617,0.014618 0.02186,-0.01984 0.2453649,-1.1672798 0.278447,-1.4295006 0.267303,-1.3688056 0.256998,-1.3997193 -0.0049,-0.01461 -0.805599,0.767053 -1.7934429,1.7507389 l -1.7846449,1.7771332 0.00131,3.2946324 c 7.203e-4,1.812048 0.0084,3.396396 0.01706,3.520774 0.015548,0.223247 0.016633,0.226878 0.084749,0.283743 0.050951,0.04254 0.096587,0.05956 0.1744749,0.06509 0.058012,0.0041 1.678213,0.0069 3.6004469,0.0061 3.083135,-0.0012 3.497284,-0.005 3.514597,-0.0324 z M 11.559664,8.6096628 c -0.02547,-0.00491 -0.07206,-0.00504 -0.103533,-2.826e-4 -0.03147,0.00476 -0.01064,0.00878 0.04631,0.00894 0.05694,1.553e-4 0.0827,-0.00374 0.05723,-0.00865 z M 11.227398,8.5506205 C 10.619363,8.370847 10.167992,7.910106 10.000839,7.2985986 9.96442,7.1653627 9.9600068,7.1576067 9.9692491,7.243079 c 0.00591,0.054644 0.035438,0.1617994 0.06562,0.2381243 0.204695,0.517634 0.59901,0.9017114 1.084498,1.0563429 0.07402,0.023578 0.148568,0.047334 0.165651,0.052793 0.01708,0.00546 0.0497,0.010164 0.07247,0.010457 0.02278,2.928e-4 -0.03576,-0.022286 -0.130093,-0.050175 z M 9.9532434,7.0880786 c -0.00661,-0.016518 -0.011516,-0.011612 -0.01251,0.01251 -8.99e-4,0.021828 0.00399,0.034058 0.010876,0.027177 0.00688,-0.00688 0.00762,-0.02474 0.00163,-0.039687 z"
     id="path8" />
  <path
     style="fill:#afafaf;fill-opacity:1;stroke-width:0.0207065"
     d="M 6.8277452,16.459924 C 6.2706815,16.359206 5.7767354,16.033768 5.4722721,15.566866 5.3471987,15.375063 5.2894853,15.25291 5.2046883,15.000514 l -0.058691,-0.174692 -0.00579,-3.674341 C 5.1338238,7.0989778 5.1287229,7.2745669 5.262142,6.95408 5.4101524,6.598543 5.3333518,6.6803751 8.3877569,3.6236935 l 2.8552991,-2.8574271 0.239151,0.2380605 c 0.42209,0.4201662 0.677435,0.7495958 0.868865,1.1209529 0.171444,0.3325872 0.181145,0.4190667 0.09645,0.8598293 -0.08934,0.4649245 -0.747895,3.7940658 -0.762099,3.8525804 l -0.01116,0.045972 2.585221,0.00593 2.58522,0.00593 0.144945,0.054735 c 0.23887,0.090203 0.303942,0.1214964 0.45289,0.2177955 0.356489,0.2304811 0.61944,0.5899348 0.742735,1.0153205 0.04474,0.1543723 0.04676,0.1939479 0.04676,0.9171198 0,0.9071397 0.03261,0.762732 -0.396478,1.7558937 -0.165818,0.383802 -0.387881,0.898156 -0.493474,1.14301 -1.051064,2.43725 -1.596778,3.666462 -1.678847,3.781575 -0.229297,0.321619 -0.655094,0.595598 -1.058461,0.681065 -0.207744,0.04402 -7.5328938,0.04203 -7.7770288,-0.0021 z m 6.4657988,-1.727281 c 0,-0.01371 -1.040576,-0.02074 -3.080085,-0.02082 -2.0650414,-7.7e-5 -3.1055941,-0.0072 -3.1574906,-0.02161 -0.042573,-0.01182 -0.088846,-0.04205 -0.1028296,-0.06718 -0.037516,-0.06741 -0.049753,-1.010991 -0.054718,-4.219169 L 6.8941088,7.6177056 8.647881,5.8693107 c 0.9645748,-0.9616171 1.756967,-1.7388106 1.760872,-1.7270961 0.0039,0.011715 -0.09001,0.5194658 -0.20869,1.1283364 -0.197088,1.0110981 -0.257349,1.349647 -0.2302217,1.2933954 0.00869,-0.01802 0.2176207,-1.0721602 0.4258687,-2.1486863 0.03694,-0.1909736 0.06079,-0.3536004 0.053,-0.3613929 -0.01555,-0.015549 -0.103887,0.07098 -2.1621484,2.1178449 L 6.87215,7.5782927 6.87885,11.057112 c 0.00507,2.631268 0.0127,3.492429 0.031332,3.53468 0.040416,0.09165 0.1208535,0.129245 0.3049439,0.142524 0.3070827,0.02215 6.0784191,0.02056 6.0784191,-0.0017 z m 0.993072,-0.05694 c 0.04563,-0.098 0.430608,-0.981157 1.320068,-3.028319 0.877274,-2.0191154 0.892905,-2.0593762 0.895684,-2.3070441 0.0013,-0.1177317 -0.02091,-0.036626 -0.03385,0.1234797 -0.01236,0.1530122 -0.03594,0.215016 -0.404714,1.0643124 -0.215373,0.496009 -0.583605,1.344435 -0.818293,1.885391 -0.234688,0.540956 -0.554346,1.277071 -0.710351,1.63581 l -0.283645,0.652253 -0.121801,0.01205 -0.121801,0.01205 0.126092,0.0035 c 0.1188,0.0033 0.127625,1.88e-4 0.152607,-0.05346 z M 11.538672,8.6105253 c -0.01423,-0.00574 -0.03753,-0.00574 -0.05177,0 -0.01423,0.00574 -0.0026,0.010444 0.02588,0.010444 0.02847,0 0.04012,-0.0047 0.02588,-0.010444 z m -0.176436,-0.019503 c -0.0069,-0.00688 -0.02474,-0.00762 -0.03969,-0.00163 -0.01652,0.00661 -0.01161,0.011516 0.01251,0.01251 0.02183,8.991e-4 0.03406,-0.00399 0.02718,-0.010875 z M 11.16078,8.5325619 C 10.593686,8.3337665 10.206265,7.9359845 10.019874,7.3611449 9.9884856,7.2643423 9.9621296,7.195806 9.9613049,7.2088419 c -0.0033,0.052198 0.090699,0.316687 0.1653271,0.4651749 0.14722,0.292923 0.405989,0.5687643 0.68505,0.7302465 0.105477,0.061036 0.403332,0.1768629 0.45263,0.1760144 0.01708,-2.938e-4 -0.02951,-0.021766 -0.103532,-0.047716 z"
     id="path9" />
  <path
     style="fill:#afafaf;fill-opacity:1;stroke-width:0.0207065"
     d="M 6.9366626,16.478899 C 6.5071771,16.411256 6.1871803,16.271439 5.8641112,16.010266 5.5954866,15.793107 5.3745489,15.468533 5.2322506,15.082017 l -0.086696,-0.235488 -0.00562,-3.68439 C 5.1337354,7.0982241 5.128606,7.2748477 5.262142,6.95408 5.4102,6.5984287 5.3329801,6.6806836 8.3887293,3.6236297 L 11.245001,0.76613886 11.550555,1.0767357 c 0.596985,0.6068387 0.954896,1.1820594 0.955898,1.536286 1.36e-4,0.047759 -0.02734,0.2247989 -0.06105,0.3934227 -0.03371,0.1686237 -0.201841,1.0194082 -0.373618,1.8906323 -0.345834,1.7540029 -0.369788,1.8743795 -0.386179,1.9406867 l -0.01138,0.046046 2.585239,0.00633 c 2.577747,0.00631 2.585599,0.00646 2.709477,0.050462 0.571748,0.2031074 0.951305,0.5529036 1.155886,1.0652544 0.102056,0.2555883 0.107208,0.3091925 0.107208,1.1153402 v 0.7557856 l -0.06562,0.1863574 c -0.03609,0.102497 -0.174626,0.437942 -0.30785,0.745433 -0.133224,0.307491 -0.375282,0.866565 -0.537906,1.242387 -0.255117,0.589569 -0.574887,1.324807 -1.391377,3.199148 -0.193313,0.443772 -0.288693,0.595573 -0.489547,0.779138 -0.22927,0.209534 -0.580615,0.387215 -0.871364,0.440663 -0.08617,0.01584 -1.236336,0.02174 -3.851401,0.01977 -2.0506943,-0.0016 -3.75183,-0.0065 -3.7803014,-0.01097 z m 6.3258224,-1.746256 c 0.02336,-0.01004 -1.309137,-0.01843 -3.056289,-0.01925 -2.2048037,-10e-4 -3.1166242,-0.0081 -3.1633483,-0.02434 -0.036106,-0.01259 -0.07684,-0.04287 -0.09052,-0.0673 -0.037383,-0.06675 -0.049032,-0.976953 -0.053455,-4.17691 L 6.8949628,7.6168543 8.6483079,5.8688849 c 0.96434,-0.9613831 1.7566301,-1.7381145 1.7606451,-1.72607 0.004,0.012044 -0.06806,0.4079809 -0.160167,0.8798587 -0.237459,1.216538 -0.2920902,1.5112385 -0.2844195,1.5342508 0.00632,0.018946 0.1502855,-0.6967995 0.3897975,-1.9378697 0.05698,-0.2952689 0.09987,-0.5468523 0.09531,-0.5590743 -0.0087,-0.023379 -0.253873,0.2163106 -2.3084708,2.2570631 l -1.270078,1.2615192 0.00772,3.4683313 c 0.00701,3.150498 0.010809,3.475294 0.041468,3.544314 0.052991,0.119295 0.08936,0.129802 0.4927998,0.142374 0.6072833,0.01892 5.805292,0.01809 5.849574,-9.39e-4 z m 1.0128,-0.04659 c 0.01661,-0.02562 0.250729,-0.554416 0.520267,-1.175092 0.269538,-0.620676 0.573197,-1.318843 0.674799,-1.551482 0.101602,-0.232639 0.181853,-0.431613 0.178336,-0.442164 -0.0035,-0.01055 -0.100633,0.198426 -0.215813,0.464394 -0.115181,0.265967 -0.393507,0.907541 -0.618503,1.42572 -0.224995,0.518179 -0.443039,1.021346 -0.484542,1.118149 l -0.07546,0.176004 -0.123226,0.01205 -0.123227,0.01205 0.118585,0.0035 c 0.102318,0.003 0.122727,-0.0029 0.148783,-0.04311 z m 1.65413,-3.784105 c 0.426665,-0.9823086 0.539319,-1.2542488 0.506093,-1.221681 -0.0058,0.00569 -0.09445,0.2060292 -0.196986,0.445189 -0.102533,0.239159 -0.267596,0.621193 -0.366807,0.848964 -0.210758,0.483866 -0.227416,0.525166 -0.200439,0.496955 0.01089,-0.01139 0.127053,-0.267631 0.258139,-0.569427 z m 0.569583,-1.490865 -0.0011,-0.1138855 -0.01658,0.093179 c -0.0091,0.051248 -0.01662,0.1211328 -0.01666,0.1552984 -6.7e-5,0.052932 0.0026,0.055994 0.01772,0.020706 0.0098,-0.022777 0.01728,-0.092661 0.01666,-0.1552985 z M 11.264312,8.5741368 c 0,-0.00478 -0.04892,-0.024712 -0.108709,-0.044295 C 10.630413,8.357825 10.194714,7.9191432 10.03109,7.3976323 10.01059,7.3322863 9.989871,7.2827637 9.985053,7.2875821 c -0.014264,0.014264 0.05855,0.2192703 0.125413,0.3530999 0.207319,0.4149592 0.533224,0.7164274 0.943116,0.8724013 0.17962,0.06835 0.21073,0.077363 0.21073,0.061053 z"
     id="path10" />
  <path
     style="fill:#afafaf;fill-opacity:1;stroke-width:0.0207065"
     d="M 6.8069124,16.460092 C 6.2794979,16.364119 5.7710358,16.025278 5.4765906,15.573559 5.3525468,15.383259 5.2943375,15.262856 5.2035148,15.008715 l -0.057961,-0.162186 -0.00643,-3.65469 C 5.1343717,8.4864596 5.1389989,7.4892053 5.1569424,7.3525708 5.1933101,7.0756425 5.2728803,6.87368 5.4513326,6.6053593 5.5045519,6.5253388 6.5499323,5.4641236 8.388508,3.6236935 l 2.854548,-2.8574271 0.240011,0.2380605 c 0.631374,0.6262431 1.022344,1.2407595 1.023386,1.6085339 2.31e-4,0.081408 -0.05689,0.3815774 -0.476019,2.5016337 -0.09231,0.4669306 -0.205132,1.0399817 -0.250711,1.273447 -0.04558,0.2334653 -0.08764,0.4407887 -0.09347,0.4607187 -0.01005,0.034369 0.118336,0.036244 2.491099,0.036393 1.644547,1.029e-4 2.547815,0.00759 2.636292,0.021864 0.31092,0.050146 0.71992,0.2788866 0.955794,0.5345451 0.205259,0.2224749 0.369312,0.5280338 0.436426,0.8128694 0.01855,0.07873 0.02617,0.3281596 0.02617,0.8565094 0,0.8936009 0.02956,0.7608666 -0.382727,1.7186359 -0.306366,0.711709 -1.445405,3.335343 -1.946183,4.482791 -0.08197,0.187825 -0.189835,0.398669 -0.239695,0.468542 -0.191555,0.268439 -0.475824,0.476404 -0.850006,0.621842 l -0.205019,0.07969 -3.820341,0.0035 c -3.2130313,0.003 -3.8459042,-0.0011 -3.9811506,-0.02575 z M 13.096833,14.73344 c 0.06833,-0.0085 -1.251875,-0.01679 -2.933792,-0.01846 -2.1018684,-0.0021 -3.0762567,-0.0099 -3.1163215,-0.02505 -0.048074,-0.01815 -0.053581,-0.01724 -0.031421,0.0052 0.019909,0.02014 0.1486587,0.03011 0.4969549,0.03847 0.7242178,0.01738 5.4443046,0.01727 5.5845796,-1.34e-4 z m 1.166047,-0.0272 c 0.01205,-0.01452 0.07446,-0.1473 0.138698,-0.295067 0.06423,-0.147767 0.147827,-0.338552 0.185764,-0.423966 0.122737,-0.276337 1.029656,-2.369241 1.049811,-2.422656 0.01074,-0.02847 0.01118,-0.04245 9.8e-4,-0.03106 -0.01791,0.01998 -0.118264,0.249056 -0.984276,2.24665 l -0.399469,0.921437 -0.112882,0.01215 -0.112882,0.01215 0.106173,0.0034 c 0.06458,0.0021 0.114756,-0.007 0.128083,-0.02302 z M 6.9536462,14.62393 c -0.039371,-0.07086 -0.05056,-0.914607 -0.054855,-4.136797 L 6.894967,7.6186105 8.4429158,6.0740925 C 10.020545,4.4999596 10.398895,4.1282904 10.411184,4.1405794 c 0.0038,0.00381 -0.01747,0.1359748 -0.04727,0.2937068 -0.04558,0.2411764 -0.31441,1.6282687 -0.3859819,1.9915339 -0.011958,0.060693 -0.017504,0.1145887 -0.012325,0.1197682 0.00518,0.00518 0.052623,-0.2122008 0.1054289,-0.4830673 0.185011,-0.9490011 0.361007,-1.8598402 0.374735,-1.9393886 l 0.01386,-0.080278 -0.05837,0.045842 C 10.369143,4.1139095 9.5613939,4.909142 8.6062508,5.8558796 l -1.7366235,1.7213409 0.00918,3.4690025 c 0.00832,3.143034 0.012341,3.476299 0.042814,3.546652 0.018498,0.04271 0.039096,0.07765 0.045772,0.07765 0.00668,0 4.895e-4,-0.02097 -0.013748,-0.04659 z m 8.9750118,-3.721985 c 0.374075,-0.861133 0.516769,-1.2033749 0.506159,-1.2139853 -0.0054,-0.0054 -0.01897,0.01629 -0.03017,0.04819 -0.0112,0.0319 -0.171988,0.4074213 -0.357306,0.8344923 -0.404739,0.932731 -0.402233,0.926746 -0.37707,0.90073 0.01101,-0.01139 0.127291,-0.267631 0.258391,-0.569427 z M 16.50159,9.4024563 c 0.002,-0.1397406 -0.01161,-0.1129026 -0.02538,0.050041 -0.007,0.082408 -0.0045,0.1185353 0.0063,0.093179 0.0097,-0.022777 0.0183,-0.087226 0.0191,-0.1432197 z M 11.16078,8.5371658 C 10.810723,8.3873763 10.679439,8.3072838 10.491161,8.1286508 10.344735,7.9897256 10.245113,7.8567401 10.142025,7.6625877 c -0.08807,-0.1658716 -0.107322,-0.1704073 -0.02414,-0.00569 0.196188,0.3884813 0.51873,0.6865656 0.919228,0.849524 0.126208,0.051353 0.235081,0.078418 0.123663,0.030742 z M 10.023372,7.3801914 c -0.02191,-0.061724 -0.040515,-0.102238 -0.041347,-0.090031 -0.00213,0.031271 0.063563,0.2198748 0.073222,0.2102155 0.0044,-0.00438 -0.01,-0.05846 -0.03187,-0.1201844 z"
     id="path11" />
  <path
     style="fill:#afafaf;fill-opacity:1;stroke-width:0.0207065"
     d="M 6.8067114,16.459978 C 6.7181554,16.443909 6.5644099,16.399225 6.4650549,16.36068 5.8734003,16.131148 5.479439,15.725926 5.2338272,15.094257 l -0.088273,-0.227022 v -3.778928 c 0,-4.1804498 -0.010054,-3.8539475 0.1284362,-4.1709788 C 5.4110392,6.6035962 5.3829917,6.633258 8.3786246,3.6340113 L 11.242985,0.76619566 11.483167,1.0042915 c 0.638737,0.6331872 1.023532,1.2409467 1.023532,1.6166026 0,0.044657 -0.121816,0.6985286 -0.270703,1.4530488 -0.616532,3.1244346 -0.555946,2.7899558 -0.507417,2.8013079 0.02367,0.00554 1.184484,0.012303 2.579582,0.015034 l 2.536541,0.00497 0.134592,0.046043 c 0.542106,0.1854509 0.943423,0.5584015 1.145532,1.0645607 0.101898,0.2551942 0.107208,0.3099224 0.107208,1.1049869 0,0.876254 0.01607,0.7919108 -0.283969,1.4908646 -0.311598,0.725891 -1.879523,4.338385 -2.107485,4.855638 -0.202317,0.459061 -0.513894,0.745811 -1.027157,0.945308 l -0.205019,0.07969 -3.820341,0.0034 c -3.2097881,0.0029 -3.8460729,-0.0012 -3.9813516,-0.02579 z m 6.0002316,-1.727346 c 0.07972,-0.0074 -1.16888,-0.01294 -2.774665,-0.01239 -1.6057859,5.46e-4 -2.677345,0.006 -2.3812427,0.01213 0.7722498,0.01598 4.9833627,0.01619 5.1559077,2.58e-4 z m 1.468984,-0.04601 c 0.01773,-0.02531 0.0319,-0.05559 0.0315,-0.0673 -4.03e-4,-0.0117 -0.01356,0.002 -0.02923,0.03049 -0.02128,0.03866 -0.05123,0.05491 -0.118328,0.06419 l -0.08983,0.01242 0.08683,0.0031 c 0.06837,0.0024 0.09368,-0.0067 0.119062,-0.04291 z m -7.1943192,0.01737 c 0,-0.0044 -0.018649,-0.01281 -0.041441,-0.01877 -0.022793,-0.006 -0.03622,-0.0024 -0.029838,0.0079 0.011145,0.01803 0.071279,0.02718 0.071279,0.01084 z m -0.1278712,-0.08006 c -0.017709,-0.03198 -0.029946,-0.218609 -0.039035,-0.59531 l -0.013239,-0.548721 0.00207,0.548721 c 0.00153,0.40579 0.009,0.560856 0.028682,0.59531 0.014636,0.02562 0.031271,0.04659 0.036965,0.04659 0.00569,0 -0.00125,-0.02097 -0.015443,-0.04659 z m 8.0738444,-1.65134 c 0.324511,-0.74595 0.594273,-1.370249 0.59947,-1.387332 0.03157,-0.103764 -0.07311,0.126682 -0.418924,0.922211 -0.212688,0.489282 -0.498491,1.145846 -0.635118,1.459031 -0.136628,0.313185 -0.252218,0.583405 -0.256867,0.600487 -0.02184,0.08025 0.16789,-0.344947 0.711439,-1.594397 z M 8.4710689,6.0451445 C 9.3376865,5.1802419 10.072089,4.4492996 10.103075,4.4208283 c 0.03099,-0.028471 0.114998,-0.1076736 0.186693,-0.1760049 l 0.130355,-0.1242387 -0.01378,0.082826 c -0.0076,0.045554 -0.10206,0.538713 -0.209964,1.0959084 -0.107904,0.5571954 -0.193101,1.022346 -0.189327,1.0336679 0.0038,0.011322 0.03202,-0.1091207 0.06278,-0.2676502 0.298503,-1.5387189 0.363087,-1.8727964 0.37556,-1.9426985 l 0.01441,-0.080772 -0.06882,0.057722 c -0.03785,0.031747 -0.8445355,0.8263894 -1.7926323,1.7658718 l -1.7238125,1.7081496 0.0051,2.7667893 0.0051,2.766788 0.00533,-2.744746 0.00533,-2.7447456 z m 7.2204251,5.3842715 c -0.0064,-0.0064 -0.01795,0.0051 -0.02573,0.02554 -0.01124,0.02951 -0.0089,0.03189 0.01159,0.01159 0.01415,-0.01405 0.02051,-0.03075 0.01414,-0.03713 z m 0.29329,-0.65983 c 0.138086,-0.317113 0.247257,-0.580379 0.242601,-0.585035 -0.0074,-0.0074 -0.500118,1.112017 -0.525399,1.193646 -0.03024,0.09764 0.05729,-0.09073 0.282798,-0.608611 z m 0.37071,-0.8719003 c -7.27e-4,-0.026587 -0.118524,0.2208963 -0.11827,0.2484773 1.05e-4,0.01139 0.02689,-0.0352 0.05951,-0.103532 0.03263,-0.068331 0.05907,-0.1335567 0.05876,-0.1449453 z m 0.04339,-0.1035322 c 0,-0.011389 -0.009,-0.00673 -0.02007,0.010353 -0.01104,0.017083 -0.02007,0.040378 -0.02007,0.051766 0,0.011389 0.009,0.00673 0.02007,-0.010353 0.01104,-0.017083 0.02007,-0.040378 0.02007,-0.051766 z m 0.02924,-0.063195 c 0.0071,-0.018427 0.0036,-0.026739 -0.0081,-0.019484 -0.01126,0.00696 -0.02047,0.021419 -0.02047,0.032135 0,0.029785 0.01484,0.023222 0.02861,-0.012651 z m 0.06908,-0.3558261 c -0.0048,-0.031475 -0.0088,-0.010638 -0.0089,0.046305 -1.55e-4,0.056943 0.0037,0.082695 0.0087,0.057227 0.0049,-0.025468 0.005,-0.072057 2.82e-4,-0.1035322 z M 11.12972,8.5207065 c -0.05692,-0.024461 -0.08962,-0.024461 -0.05177,0 0.01708,0.01104 0.04504,0.01956 0.06212,0.018934 0.02048,-7.506e-4 0.01695,-0.0072 -0.01035,-0.018934 z M 10.90075,8.4213128 C 10.637573,8.2815746 10.400833,8.0751019 10.26091,7.8632765 c -0.06873,-0.104051 -0.09142,-0.116327 -0.03827,-0.020706 0.02057,0.037013 0.130586,0.1608751 0.244471,0.2752495 0.160816,0.1615066 0.244064,0.2272668 0.372716,0.2944224 0.09111,0.047558 0.17497,0.086514 0.186359,0.086569 0.01139,5.49e-5 -0.04506,-0.034819 -0.125438,-0.077498 z m -0.769195,-0.780052 c -0.03056,-0.062319 -0.05904,-0.1098349 -0.06329,-0.1055913 -0.0093,0.0093 0.09514,0.2188981 0.109078,0.2188981 0.0054,0 -0.01523,-0.050988 -0.04579,-0.1133068 z m -0.0864,-0.1905604 c -0.02441,-0.041976 -0.03031,-0.028541 -0.01032,0.02353 0.0071,0.018505 0.01727,0.029284 0.0226,0.023953 0.0053,-0.00533 -1.95e-4,-0.026699 -0.01228,-0.047483 z M 9.973946,6.4875914 c -0.00661,-0.016518 -0.011516,-0.011612 -0.01251,0.01251 -8.991e-4,0.021828 0.00399,0.034058 0.010875,0.027177 0.00688,-0.00688 0.00762,-0.02474 0.00163,-0.039687 z M 9.994225,6.3827649 c -0.00574,-0.014236 -0.010444,-0.00259 -0.010444,0.025883 0,0.028471 0.0047,0.040119 0.010444,0.025883 0.00574,-0.014236 0.00574,-0.03753 0,-0.051766 z"
     id="path12" />
  <path
     style="fill:#afafaf;fill-opacity:1;stroke-width:0.0207065"
     d="m 6.8194966,16.462166 c -0.4084,-0.07441 -0.7916315,-0.276072 -1.0849241,-0.570908 -0.2328246,-0.23405 -0.3938984,-0.497791 -0.532799,-0.872401 l -0.056219,-0.151622 -0.00546,-3.69268 C 5.1341111,7.1223691 5.1297607,7.2779352 5.2580226,6.9576165 5.3939283,6.6182079 5.3304642,6.6857759 8.3797891,3.6339829 l 2.8655249,-2.86784404 0.31507,0.32095004 c 0.572773,0.5834611 0.911527,1.1130198 0.939195,1.468199 0.011,0.141184 -0.05984,0.5214715 -0.626353,3.3626252 -0.09719,0.4874345 -0.173665,0.9020813 -0.169939,0.9214372 0.0063,0.032828 0.179955,0.035888 2.584448,0.045546 l 2.577673,0.010353 0.121469,0.046302 c 0.607719,0.2316545 0.979242,0.5998163 1.176948,1.1662994 l 0.06821,0.1954375 v 0.7764921 c 0,0.9678277 0.06173,0.7281091 -0.554493,2.1534717 -0.164938,0.381517 -0.379062,0.875366 -0.475831,1.097442 -0.15566,0.357228 -0.588628,1.35308 -1.102814,2.536541 -0.311352,0.716614 -0.34431,0.785829 -0.433818,0.911058 -0.188355,0.263521 -0.461738,0.468329 -0.823201,0.616707 l -0.212766,0.08734 -3.830694,0.0034 c -3.0716538,0.0027 -3.8600652,-0.0019 -3.9789204,-0.02359 z m 5.6457894,-1.730885 c 0.02847,-0.0084 -1.052405,-0.01406 -2.401949,-0.01264 -1.3495428,0.0014 -2.216108,0.0078 -1.9257,0.01424 0.7835197,0.01731 4.267681,0.01602 4.327649,-0.0016 z m 1.734166,-0.01291 c -0.01993,-0.0052 -0.05254,-0.0052 -0.07247,0 -0.01993,0.0052 -0.0036,0.0095 0.03624,0.0095 0.03986,0 0.05617,-0.0043 0.03624,-0.0095 z m -7.1234522,-0.01894 c -0.00688,-0.0069 -0.02474,-0.0076 -0.039687,-0.0016 -0.016518,0.0066 -0.011612,0.01152 0.01251,0.01251 0.021828,8.99e-4 0.034058,-0.004 0.027177,-0.01088 z m 7.2321612,-0.07772 c 0,-0.02631 -0.0096,-0.01456 -0.03975,0.04882 -0.02325,0.04881 -0.02281,0.04947 0.0075,0.01157 0.01771,-0.02211 0.0322,-0.04928 0.0322,-0.06039 z m -7.3621906,-0.0081 c -0.00871,-0.01993 -0.022484,-0.245889 -0.030616,-0.502132 l -0.014787,-0.465895 0.00392,0.465895 c 0.00352,0.417568 0.014053,0.538368 0.046956,0.538368 0.00569,0 0.00323,-0.01631 -0.00548,-0.03624 z m 7.4236756,-0.139769 c 0,-0.01139 -0.009,-0.0067 -0.02007,0.01035 -0.01104,0.01708 -0.02007,0.04038 -0.02007,0.05177 0,0.01139 0.009,0.0067 0.02007,-0.01035 0.01104,-0.01708 0.02007,-0.04038 0.02007,-0.05177 z m 0.08199,-0.186358 c 0,-0.01139 -0.01332,0.0026 -0.02959,0.03106 -0.01628,0.02847 -0.02959,0.06108 -0.02959,0.07247 0,0.01139 0.01332,-0.0026 0.02959,-0.03106 0.01628,-0.02847 0.02959,-0.06108 0.02959,-0.07247 z m 0.139635,-0.334629 c -0.0044,-0.0044 -0.03365,0.0504 -0.06492,0.121869 -0.08417,0.192366 -0.08442,0.213967 -4.57e-4,0.03913 0.04039,-0.08411 0.06981,-0.156558 0.06537,-0.160994 z m 0.09901,-0.205676 c 0.04204,-0.09787 0.07276,-0.181627 0.06826,-0.186131 -0.0065,-0.0065 -0.06731,0.127965 -0.15704,0.34721 -0.0038,0.0093 -0.0026,0.01686 0.0027,0.01686 0.0053,0 0.04402,-0.08007 0.08606,-0.177942 z m 0.110831,-0.267794 c -0.0064,-0.0064 -0.01795,0.0051 -0.02573,0.02554 -0.01124,0.02951 -0.0089,0.03189 0.01159,0.01159 0.01415,-0.01405 0.02051,-0.03075 0.01414,-0.03713 z m 0.142166,-0.334082 c -0.0044,-0.0044 -0.03365,0.0504 -0.06492,0.121869 -0.08417,0.192367 -0.08442,0.213968 -4.58e-4,0.03913 0.04039,-0.08411 0.06981,-0.156558 0.06537,-0.160994 z m 0.06743,-0.141619 c 0,-0.01139 -0.01332,0.0026 -0.02959,0.03106 -0.01628,0.02847 -0.02959,0.06108 -0.02959,0.07247 0,0.01139 0.01332,-0.0026 0.02959,-0.03106 0.01628,-0.02847 0.02959,-0.06108 0.02959,-0.07247 z m 0.06212,-0.144945 c 0,-0.01139 -0.01332,0.0026 -0.02959,0.03106 -0.01628,0.02847 -0.02959,0.06108 -0.02959,0.07247 0,0.01139 0.01332,-0.0026 0.02959,-0.03106 0.01628,-0.02847 0.02959,-0.06108 0.02959,-0.07247 z m 0.144677,-0.331303 c 0,-0.01139 -0.01785,0.01191 -0.03968,0.05177 -0.02182,0.03986 -0.03968,0.08179 -0.03968,0.09318 0,0.01139 0.01786,-0.01191 0.03968,-0.05177 0.02182,-0.03986 0.03968,-0.08179 0.03968,-0.09318 z m 0.09397,-0.209002 c 0.04204,-0.09787 0.07276,-0.181628 0.06826,-0.186131 -0.0065,-0.0065 -0.0673,0.127965 -0.157039,0.347209 -0.0038,0.0093 -0.0026,0.01686 0.0027,0.01686 0.0053,0 0.04402,-0.08007 0.08606,-0.177942 z m 0.11083,-0.267795 c -0.0064,-0.0064 -0.01795,0.0051 -0.02573,0.02554 -0.01124,0.02951 -0.0089,0.03189 0.01159,0.01159 0.01415,-0.01405 0.02051,-0.03075 0.01414,-0.03713 z m -8.5336219,-0.09651 c -0.00661,-0.01652 -0.011517,-0.01161 -0.01251,0.01251 -8.991e-4,0.02183 0.00399,0.03406 0.010875,0.02718 0.00688,-0.0069 0.00762,-0.02474 0.00163,-0.03969 z M 8.5156253,6.0017432 C 10.248253,4.2748111 10.415347,4.1117008 10.415347,4.1473111 c 0,0.012616 -0.01913,0.1220848 -0.04252,0.243265 -0.02338,0.1211804 -0.03933,0.2298858 -0.03544,0.2415677 0.0039,0.011682 0.03243,-0.1117531 0.06342,-0.2743002 0.03099,-0.1625472 0.05187,-0.3000059 0.04641,-0.3054641 -0.0055,-0.00546 -0.445816,0.4230212 -0.9785734,0.9521762 C 8.9358924,5.5337108 8.1342722,6.3284685 7.6872716,6.770684 l -0.8127284,0.8040284 0.00508,2.1761029 0.00508,2.1761027 0.00537,-2.1551579 0.00537,-2.1551586 z m 7.0944367,5.6145788 c -7.27e-4,-0.02659 -0.118525,0.220896 -0.11827,0.248477 1.05e-4,0.01139 0.02689,-0.0352 0.05951,-0.103532 0.03263,-0.06833 0.05907,-0.133557 0.05876,-0.144945 z m 0.08143,-0.186906 c -0.0064,-0.0064 -0.01795,0.0051 -0.02573,0.02554 -0.01124,0.02951 -0.0089,0.03189 0.01159,0.01159 0.01415,-0.01405 0.02051,-0.03075 0.01414,-0.03713 z m 0.06465,-0.144398 c 0,-0.01139 -0.01332,0.0026 -0.02959,0.03106 -0.01628,0.02847 -0.02959,0.06108 -0.02959,0.07247 0,0.01139 0.01332,-0.0026 0.02959,-0.03106 0.01628,-0.02847 0.02959,-0.06108 0.02959,-0.07247 z m 0.08297,-0.196711 c 2.27e-4,-0.01708 -0.01802,0.0096 -0.04054,0.0592 -0.02253,0.04964 -0.04057,0.09624 -0.04009,0.103532 0.0017,0.02614 0.08023,-0.132332 0.08064,-0.162736 z m 0.19568,-0.433305 c 0.04115,-0.09596 0.07424,-0.184481 0.07351,-0.196711 -7.22e-4,-0.01223 -0.0091,-0.0036 -0.01869,0.01918 -0.0096,0.02278 -0.05147,0.120615 -0.09315,0.217417 -0.04168,0.0968 -0.06694,0.166687 -0.05614,0.155299 0.0108,-0.01139 0.05331,-0.09922 0.09446,-0.195181 z m 0.132947,-0.323029 c -0.0064,-0.0064 -0.01795,0.0051 -0.02573,0.02554 -0.01124,0.02951 -0.0089,0.03189 0.01159,0.01159 0.01415,-0.01405 0.02051,-0.03075 0.01414,-0.03713 z m 0.12677,-0.289342 c 0,-0.01139 -0.01332,0.0026 -0.02959,0.03106 -0.01628,0.02847 -0.02959,0.06108 -0.02959,0.07247 0,0.01139 0.01332,-0.0026 0.02959,-0.03106 0.01628,-0.02847 0.02959,-0.06109 0.02959,-0.07247 z m 0.06212,-0.1449453 c 0,-0.011389 -0.01332,0.00259 -0.02959,0.03106 -0.01628,0.028471 -0.02959,0.061084 -0.02959,0.072473 0,0.01139 0.01332,-0.00259 0.02959,-0.03106 0.01628,-0.028471 0.02959,-0.061084 0.02959,-0.072473 z m 0.13998,-0.5021315 c -0.0052,-0.01993 -0.0095,-0.00362 -0.0095,0.036236 0,0.03986 0.0043,0.056166 0.0095,0.036236 0.0052,-0.01993 0.0052,-0.052543 0,-0.072472 z M 11.119367,8.5207065 c -0.01708,-0.01104 -0.04038,-0.020072 -0.05177,-0.020072 -0.01139,0 -0.0067,0.00903 0.01035,0.020072 0.01708,0.01104 0.04038,0.020072 0.05177,0.020072 0.01139,0 0.0067,-0.00903 -0.01035,-0.020072 z m -0.217452,-0.0989 C 10.710297,8.3198973 10.640116,8.2692597 10.467113,8.1080833 l -0.144945,-0.1350367 0.113886,0.119998 c 0.06264,0.065999 0.159246,0.1535523 0.214687,0.1945631 0.108511,0.080268 0.341602,0.211499 0.375447,0.2113773 0.01139,-4.1e-5 -0.04453,-0.034772 -0.124273,-0.077178 z M 10.332521,7.9538142 c 0,-0.0043 -0.01631,-0.020606 -0.03624,-0.036236 -0.03284,-0.025756 -0.03357,-0.025024 -0.0078,0.00782 0.02705,0.034492 0.04405,0.045461 0.04405,0.028418 z m -0.06212,-0.082826 c 0,-0.0043 -0.01631,-0.020606 -0.03624,-0.036236 -0.03284,-0.025756 -0.03357,-0.025024 -0.0078,0.00782 0.02705,0.034492 0.04405,0.045461 0.04405,0.028418 z M 10.141989,7.6618429 c -0.02478,-0.050999 -0.0486,-0.089173 -0.05294,-0.084833 -0.0094,0.00937 0.0743,0.1775572 0.08833,0.1775572 0.0053,0 -0.01061,-0.041726 -0.03539,-0.092724 z M 10.015363,6.2805268 c -0.0066,-0.016518 -0.01152,-0.011612 -0.01251,0.01251 -8.99e-4,0.021828 0.004,0.034058 0.01088,0.027177 0.0069,-0.00688 0.0076,-0.02474 0.0016,-0.039687 z m 0.02027,-0.1048264 c -0.0057,-0.014236 -0.01044,-0.00259 -0.01044,0.025883 0,0.028471 0.0047,0.040119 0.01044,0.025883 0.0057,-0.014236 0.0057,-0.03753 0,-0.051766 z m 0.02071,-0.1035323 c -0.0057,-0.014236 -0.01044,-0.00259 -0.01044,0.025883 0,0.028471 0.0047,0.040119 0.01044,0.025883 0.0057,-0.014236 0.0057,-0.03753 0,-0.051766 z m 0.128168,-0.6263703 c -6.09e-4,-0.022777 -0.02768,0.084379 -0.06016,0.2381242 -0.03248,0.1537455 -0.05856,0.298173 -0.05795,0.3209501 6.09e-4,0.022777 0.02768,-0.084379 0.06016,-0.2381242 0.03248,-0.1537455 0.05856,-0.298173 0.05795,-0.3209501 z m 0.0852,-0.4037759 c 0.03445,-0.1765225 0.06174,-0.3349269 0.06064,-0.3520097 -0.0027,-0.042547 -0.140974,0.6211899 -0.140162,0.6729598 0.0011,0.06746 0.01356,0.016975 0.07952,-0.3209501 z"
     id="path13" />
  <path
     style="fill:#afafaf;fill-opacity:1;stroke-width:0.0207065"
     d="M 6.8061759,16.459887 C 6.0617081,16.324831 5.4656582,15.787506 5.2088252,15.019911 l -0.073624,-0.22004 7.88e-5,-3.66242 C 5.1353657,7.1431203 5.1314673,7.2802082 5.2539386,6.9648058 5.3851481,6.6268998 5.3202983,6.6960271 8.3786382,3.6339976 L 11.243012,0.76616845 11.503878,1.0249844 c 0.587571,0.5829537 0.967932,1.1664974 0.99496,1.5264501 0.01197,0.1594341 0.02694,0.078031 -0.543796,2.9564827 -0.237416,1.1973777 -0.262652,1.3357107 -0.2466,1.3517721 0.0082,0.00817 1.171823,0.019513 2.585906,0.025207 l 2.57106,0.010353 0.173487,0.06682 c 0.207367,0.079869 0.365996,0.1669268 0.520179,0.2854822 0.348523,0.2679867 0.602906,0.6918824 0.662517,1.1039935 0.02572,0.177838 0.02601,1.2976027 3.82e-4,1.4736679 -0.03674,0.2524001 0.05358,0.034491 -1.429138,3.4476251 -1.175154,2.705133 -1.069316,2.48565 -1.310145,2.716907 -0.174666,0.167723 -0.382791,0.299343 -0.640821,0.40526 l -0.212758,0.08733 -3.830694,0.0034 c -3.2242192,0.0029 -3.8562707,-0.0012 -3.9922411,-0.02588 z m 4.7997921,-1.725546 c 0.282734,-0.0094 -0.263185,-0.01471 -1.439098,-0.01405 -1.0420527,5.86e-4 -1.6151039,0.0059 -1.2734473,0.01188 1.0023328,0.01745 2.2222593,0.01843 2.7125453,0.0022 z m 0.595705,-0.01528 c -0.01402,-0.0057 -0.04197,-0.006 -0.06212,-7.67e-4 -0.02015,0.0053 -0.0087,0.0099 0.02549,0.01031 0.03416,4.22e-4 0.05065,-0.0039 0.03663,-0.0095 z m 1.997348,0.0011 c -0.0069,-0.0069 -0.02474,-0.0076 -0.03969,-0.0016 -0.01652,0.0066 -0.01161,0.01152 0.01251,0.01251 0.02183,8.99e-4 0.03406,-0.004 0.02718,-0.01087 z M 6.9443382,14.604072 c -0.00851,-0.01377 -0.022087,-0.193141 -0.030168,-0.398599 l -0.014694,-0.373561 0.004,0.37301 c 0.00359,0.335206 0.013241,0.424189 0.045984,0.424189 0.00569,0 0.00339,-0.01127 -0.00512,-0.02504 z m 7.5073008,-0.316618 c 0,-0.01139 -0.01332,0.0026 -0.02959,0.03106 -0.01628,0.02847 -0.02959,0.06108 -0.02959,0.07247 0,0.01139 0.01332,-0.0026 0.02959,-0.03106 0.01628,-0.02847 0.02959,-0.06108 0.02959,-0.07247 z m 0.06295,-0.144945 c 0,-0.01139 -0.009,-0.0067 -0.02007,0.01035 -0.01104,0.01708 -0.02007,0.04038 -0.02007,0.05177 0,0.01139 0.009,0.0067 0.02007,-0.01035 0.01104,-0.01708 0.02007,-0.04038 0.02007,-0.05177 z m 0.06212,-0.144945 c 0,-0.01139 -0.009,-0.0067 -0.02007,0.01035 -0.01104,0.01708 -0.02007,0.04038 -0.02007,0.05177 0,0.01139 0.009,0.0067 0.02007,-0.01035 0.01104,-0.01708 0.02007,-0.04038 0.02007,-0.05177 z m 0.08199,-0.186358 c 0,-0.01139 -0.01332,0.0026 -0.02959,0.03106 -0.01628,0.02847 -0.02959,0.06108 -0.02959,0.07247 0,0.01139 0.01332,-0.0026 0.02959,-0.03106 0.01628,-0.02847 0.02959,-0.06108 0.02959,-0.07247 z m 0.08256,-0.186358 c 0,-0.01139 -0.01785,0.01191 -0.03968,0.05177 -0.02182,0.03986 -0.03968,0.08179 -0.03968,0.09318 0,0.01139 0.01785,-0.01191 0.03968,-0.05177 0.02182,-0.03986 0.03968,-0.08179 0.03968,-0.09318 z m 0.12534,-0.289891 c 0,-0.01139 -0.009,-0.0067 -0.02007,0.01035 -0.01104,0.01708 -0.02007,0.04038 -0.02007,0.05177 0,0.01139 0.009,0.0067 0.02007,-0.01035 0.01104,-0.01708 0.02007,-0.04038 0.02007,-0.05177 z m 0.05875,-0.145493 c -0.0064,-0.0064 -0.01795,0.0051 -0.02573,0.02554 -0.01124,0.02951 -0.0089,0.03189 0.01159,0.01159 0.01415,-0.01405 0.02051,-0.03075 0.01414,-0.03713 z m 0.08536,-0.18581 c 0,-0.01139 -0.01332,0.0026 -0.02959,0.03106 -0.01628,0.02847 -0.02959,0.06108 -0.02959,0.07247 0,0.01139 0.01332,-0.0026 0.02959,-0.03106 0.01628,-0.02847 0.02959,-0.06108 0.02959,-0.07247 z m 0.06212,-0.144945 c 0,-0.01139 -0.01332,0.0026 -0.02959,0.03106 -0.01628,0.02847 -0.02959,0.06108 -0.02959,0.07247 0,0.01139 0.01332,-0.0026 0.02959,-0.03106 0.01628,-0.02847 0.02959,-0.06108 0.02959,-0.07247 z m 0.204533,-0.476796 c -0.0064,-0.0064 -0.01795,0.0051 -0.02573,0.02554 -0.01124,0.02951 -0.0089,0.03189 0.01159,0.01159 0.01415,-0.01405 0.02051,-0.03075 0.01414,-0.03713 z m 0.06212,-0.144946 c -0.0064,-0.0064 -0.01795,0.0051 -0.02573,0.02554 -0.01124,0.02951 -0.0089,0.03189 0.01159,0.01159 0.01415,-0.01405 0.02051,-0.03075 0.01414,-0.03713 z m 0.03261,-0.06265 c 0.0071,-0.01843 0.0036,-0.02674 -0.0081,-0.01948 -0.01126,0.007 -0.02047,0.02142 -0.02047,0.03214 0,0.02979 0.01484,0.02322 0.02861,-0.01265 z m 0.05022,-0.123711 c -0.0064,-0.0064 -0.01795,0.0051 -0.02573,0.02554 -0.01124,0.02951 -0.0089,0.03189 0.01159,0.01159 0.01415,-0.01405 0.02051,-0.03075 0.01414,-0.03713 z m 0.126771,-0.289342 c 0,-0.01139 -0.01332,0.0026 -0.02959,0.03106 -0.01628,0.02847 -0.02959,0.06108 -0.02959,0.07247 0,0.01139 0.01332,-0.0026 0.02959,-0.03106 0.01628,-0.02847 0.02959,-0.06108 0.02959,-0.07247 z m 0.06295,-0.144945 c 0,-0.01139 -0.009,-0.0067 -0.02007,0.01035 -0.01104,0.01708 -0.02007,0.04038 -0.02007,0.05177 0,0.01139 0.009,0.0067 0.02007,-0.01035 0.01104,-0.01708 0.02007,-0.04038 0.02007,-0.05177 z m 0.144945,-0.331304 c 0,-0.01139 -0.009,-0.0067 -0.02007,0.01035 -0.01104,0.01708 -0.02007,0.04038 -0.02007,0.05177 0,0.01139 0.009,0.0067 0.02007,-0.01035 0.01104,-0.01708 0.02007,-0.04038 0.02007,-0.05177 z m 0.08199,-0.186358 c 0,-0.01139 -0.01332,0.0026 -0.02959,0.03106 -0.01628,0.02847 -0.02959,0.06108 -0.02959,0.07247 0,0.01139 0.01332,-0.0026 0.02959,-0.03106 0.01628,-0.02847 0.02959,-0.06108 0.02959,-0.07247 z M 8.5156504,6.0012035 c 0.8910878,-0.887753 1.6830556,-1.6732116 1.7599286,-1.7454633 0.154974,-0.1456583 0.15829,-0.1431489 0.108708,0.082262 -0.01628,0.074026 -0.029,0.1532278 -0.02825,0.1760049 0.0015,0.04632 0.05103,-0.169057 0.07736,-0.3364799 0.01033,-0.065686 0.0094,-0.1087089 -0.0022,-0.1087089 -0.01063,0 -0.4960766,0.4733989 -1.0787778,1.0519973 C 8.769718,5.6994142 7.9738242,6.488324 7.5837663,6.8739486 l -0.7091961,0.7011357 0.00505,1.7100217 0.00505,1.710022 0.00542,-1.6899144 0.00542,-1.6899139 z m 7.4450276,4.8070185 c -0.0064,-0.0064 -0.01795,0.0051 -0.02573,0.02554 -0.01124,0.02951 -0.0089,0.03189 0.01159,0.01159 0.01415,-0.01405 0.02051,-0.03075 0.01414,-0.03713 z m 0.125632,-0.289343 c -7.27e-4,-0.02659 -0.118524,0.220897 -0.11827,0.248478 1.05e-4,0.01139 0.02689,-0.0352 0.05951,-0.103532 0.03263,-0.06833 0.05907,-0.133557 0.05876,-0.144946 z m 0.08143,-0.186906 c -0.0064,-0.0064 -0.01795,0.0051 -0.02573,0.02554 -0.01124,0.02951 -0.0089,0.03189 0.01159,0.01159 0.01415,-0.01405 0.02051,-0.03075 0.01414,-0.03713 z m 0.12677,-0.289342 c 0,-0.01139 -0.01332,0.0026 -0.02959,0.03106 -0.01628,0.02847 -0.02959,0.06108 -0.02959,0.07247 0,0.01139 0.01332,-0.0026 0.02959,-0.03106 0.01628,-0.02847 0.02959,-0.06109 0.02959,-0.07247 z m 0.04225,-0.1035323 c 0,-0.011389 -0.009,-0.00673 -0.02007,0.010353 -0.01104,0.017083 -0.02007,0.040378 -0.02007,0.051766 0,0.01139 0.009,0.0067 0.02007,-0.010353 0.01104,-0.017083 0.02007,-0.040378 0.02007,-0.051766 z m 0.159293,-0.5331913 c -0.0057,-0.014236 -0.01044,-0.00259 -0.01044,0.025883 0,0.028471 0.0047,0.040119 0.01044,0.025883 0.0057,-0.014236 0.0057,-0.03753 0,-0.051766 z M 10.904603,8.4314863 C 10.692073,8.2962398 10.61694,8.2525187 10.643119,8.2793265 c 0.03362,0.034422 0.269712,0.1800381 0.288672,0.1780428 0.0064,-6.696e-4 -0.0059,-0.012317 -0.02719,-0.025883 z M 10.498173,8.137637 c -0.0503,-0.051248 -0.09611,-0.093179 -0.101802,-0.093179 -0.0057,0 0.0308,0.041931 0.0811,0.093179 0.0503,0.051248 0.09611,0.093179 0.101801,0.093179 0.0057,0 -0.0308,-0.041931 -0.0811,-0.093179 z M 10.13581,7.6510353 c -0.01767,-0.034166 -0.03678,-0.062119 -0.04248,-0.062119 -0.0057,0 0.0041,0.027954 0.02177,0.062119 0.01767,0.034166 0.03678,0.062119 0.04248,0.062119 0.0057,0 -0.0041,-0.027954 -0.02177,-0.062119 z M 10.077482,5.96993 c -0.0066,-0.016518 -0.01152,-0.011612 -0.01251,0.01251 -8.99e-4,0.021828 0.004,0.034058 0.01088,0.027177 0.0069,-0.00688 0.0076,-0.02474 0.0016,-0.039687 z m 0.04307,-0.2031821 c 0,-0.046176 -0.0017,-0.045058 -0.01581,0.010353 -0.0087,0.034166 -0.01581,0.085414 -0.01581,0.1138855 0,0.046176 0.0017,0.045058 0.01581,-0.010353 0.0087,-0.034166 0.01581,-0.085414 0.01581,-0.1138855 z m 0.01861,-0.1294154 c -0.0057,-0.014236 -0.01044,-0.00259 -0.01044,0.025883 0,0.028471 0.0047,0.040119 0.01044,0.025883 0.0057,-0.014236 0.0057,-0.03753 0,-0.051766 z m 0.02071,-0.1035323 c -0.0057,-0.014236 -0.01044,-0.00259 -0.01044,0.025883 0,0.028471 0.0047,0.040119 0.01044,0.025883 0.0057,-0.014236 0.0057,-0.03753 0,-0.051766 z m 0.02114,-0.081532 c -0.0066,-0.016518 -0.01152,-0.011612 -0.01251,0.01251 -8.99e-4,0.021828 0.004,0.034058 0.01088,0.027177 0.0069,-0.00688 0.0076,-0.02474 0.0016,-0.039687 z m 0.02028,-0.1255329 c -0.0057,-0.014236 -0.01045,-0.00259 -0.01045,0.025883 0,0.028471 0.0047,0.040119 0.01045,0.025883 0.0057,-0.014236 0.0057,-0.03753 0,-0.051766 z m 0.107463,-0.522838 c -6.2e-4,-0.022777 -0.02304,0.061084 -0.04983,0.1863581 -0.02679,0.125274 -0.0482,0.2464068 -0.04758,0.2691839 6.2e-4,0.022777 0.02304,-0.061084 0.04983,-0.1863581 0.02679,-0.125274 0.0482,-0.2464068 0.04758,-0.2691839 z m 0.01721,-0.097062 c -0.0066,-0.016518 -0.01152,-0.011612 -0.01251,0.01251 -8.99e-4,0.021828 0.004,0.034058 0.01088,0.027177 0.0069,-0.00688 0.0076,-0.02474 0.0016,-0.039687 z m 0.02071,-0.1242388 c -0.0066,-0.016518 -0.01152,-0.011612 -0.01251,0.01251 -8.99e-4,0.021828 0.004,0.034058 0.01088,0.027177 0.0069,-0.00688 0.0076,-0.02474 0.0016,-0.039688 z"
     id="path14" />
  <path
     style="fill:#afafaf;fill-opacity:1;stroke-width:0.0207065"
     d="M 6.8061759,16.459778 C 6.7173254,16.443719 6.56358,16.399953 6.4645194,16.36252 5.860775,16.134377 5.4371071,15.68313 5.2094056,15.025706 l -0.074205,-0.214245 7.88e-5,-3.668215 C 5.1353657,7.1425974 5.1314571,7.2802345 5.2539386,6.9648058 5.3851417,6.6269162 5.3205068,6.6958186 8.3756834,3.6369535 10.993747,1.0157291 11.240461,0.77434577 11.27659,0.79872171 c 0.02172,0.014653 0.173096,0.16706165 0.336394,0.33868599 0.421221,0.4426985 0.664399,0.7810778 0.819484,1.1403024 0.10565,0.244717 0.09536,0.3582708 -0.138876,1.5322777 -0.257078,1.2885029 -0.565338,2.8549688 -0.583065,2.9629213 l -0.01391,0.084724 0.296333,0.013556 c 0.162983,0.00746 1.314277,0.01359 2.558431,0.013632 2.255432,7.56e-5 2.26248,2.06e-4 2.391596,0.044284 0.567656,0.1937866 0.958559,0.5394177 1.164659,1.0297776 0.12114,0.2882188 0.1244,0.3178648 0.1244,1.1312521 0,0.6649456 -0.0042,0.7610825 -0.039,0.8903776 -0.02145,0.079719 -0.164752,0.4384596 -0.318449,0.7971986 -0.527556,1.231349 -2.016623,4.64865 -2.10229,4.824604 -0.06837,0.140432 -0.121414,0.211911 -0.262429,0.353656 -0.211831,0.212927 -0.414841,0.342647 -0.710746,0.454154 l -0.219108,0.08257 -3.806145,-0.0019 c -3.1791685,-0.0016 -3.8327568,-0.0067 -3.9676921,-0.03106 z m 4.3335561,-1.726386 c 0.01942,-0.01234 -0.37661,-0.01828 -1.076736,-0.01613 -0.7445572,0.0023 -0.9581795,0.0071 -0.651912,0.01456 0.84663,0.02077 1.697229,0.02154 1.728648,0.0016 z m 0.263917,-0.01326 c -0.0069,-0.0069 -0.02474,-0.0076 -0.03969,-0.0016 -0.01652,0.0066 -0.01161,0.01152 0.01251,0.01251 0.02183,8.99e-4 0.03406,-0.004 0.02718,-0.01087 z m 2.795372,0 c -0.0069,-0.0069 -0.02474,-0.0076 -0.03969,-0.0016 -0.01652,0.0066 -0.01161,0.01152 0.01251,0.01251 0.02183,8.99e-4 0.03406,-0.004 0.02718,-0.01087 z M 6.9379354,14.541108 c -0.0083,-0.07182 -0.011544,-0.07721 -0.017621,-0.02931 -0.00671,0.05292 0.00504,0.117313 0.021422,0.117313 0.00351,0 0.00179,-0.0396 -0.0038,-0.088 z m -0.027466,-0.424482 c -0.00427,-0.0541 -0.00776,-0.0098 -0.00776,0.09836 0,0.108191 0.00349,0.152451 0.00776,0.09836 0.00427,-0.0541 0.00427,-0.142615 0,-0.196711 z m 7.5420026,0.170828 c 0,-0.01139 -0.009,-0.0067 -0.02007,0.01035 -0.01104,0.01708 -0.02007,0.04038 -0.02007,0.05177 0,0.01139 0.009,0.0067 0.02007,-0.01035 0.01104,-0.01708 0.02007,-0.04038 0.02007,-0.05177 z m 0.06212,-0.144945 c 0,-0.01139 -0.009,-0.0067 -0.02007,0.01035 -0.01104,0.01708 -0.02007,0.04038 -0.02007,0.05177 0,0.01139 0.009,0.0067 0.02007,-0.01035 0.01104,-0.01708 0.02007,-0.04038 0.02007,-0.05177 z m 0.06212,-0.144945 c 0,-0.01139 -0.009,-0.0067 -0.02007,0.01035 -0.01104,0.01708 -0.02007,0.04038 -0.02007,0.05177 0,0.01139 0.009,0.0067 0.02007,-0.01035 0.01104,-0.01708 0.02007,-0.04038 0.02007,-0.05177 z m 0.08199,-0.186358 c 0,-0.01139 -0.01332,0.0026 -0.02959,0.03106 -0.01628,0.02847 -0.02959,0.06108 -0.02959,0.07247 0,0.01139 0.01332,-0.0026 0.02959,-0.03106 0.01628,-0.02847 0.02959,-0.06108 0.02959,-0.07247 z m 0.06295,-0.144945 c 0,-0.01139 -0.009,-0.0067 -0.02007,0.01035 -0.01104,0.01708 -0.02007,0.04038 -0.02007,0.05177 0,0.01139 0.009,0.0067 0.02007,-0.01035 0.01104,-0.01708 0.02007,-0.04038 0.02007,-0.05177 z m 0.144945,-0.331304 c 0,-0.01139 -0.009,-0.0067 -0.02007,0.01035 -0.01104,0.01708 -0.02007,0.04038 -0.02007,0.05177 0,0.01139 0.009,0.0067 0.02007,-0.01035 0.01104,-0.01708 0.02007,-0.04038 0.02007,-0.05177 z m 0.05875,-0.145493 c -0.0064,-0.0064 -0.01795,0.0051 -0.02573,0.02554 -0.01124,0.02951 -0.0089,0.03189 0.01159,0.01159 0.01415,-0.01405 0.02051,-0.03075 0.01414,-0.03713 z m 0.08536,-0.18581 c 0,-0.01139 -0.01332,0.0026 -0.02959,0.03106 -0.01628,0.02847 -0.02959,0.06108 -0.02959,0.07247 0,0.01139 0.01332,-0.0026 0.02959,-0.03106 0.01628,-0.02847 0.02959,-0.06108 0.02959,-0.07247 z m 0.06212,-0.144945 c 0,-0.01139 -0.01332,0.0026 -0.02959,0.03106 -0.01628,0.02847 -0.02959,0.06108 -0.02959,0.07247 0,0.01139 0.01332,-0.0026 0.02959,-0.03106 0.01628,-0.02847 0.02959,-0.06108 0.02959,-0.07247 z m 0.204533,-0.476796 c -0.0064,-0.0064 -0.01795,0.0051 -0.02573,0.02554 -0.01124,0.02951 -0.0089,0.03189 0.01159,0.01159 0.01415,-0.01405 0.02051,-0.03075 0.01414,-0.03713 z m 0.06212,-0.144946 c -0.0064,-0.0064 -0.01795,0.0051 -0.02573,0.02554 -0.01124,0.02951 -0.0089,0.03189 0.01159,0.01159 0.01415,-0.01405 0.02051,-0.03075 0.01414,-0.03713 z m 0.08282,-0.186358 c -0.0064,-0.0064 -0.01795,0.0051 -0.02573,0.02554 -0.01124,0.02951 -0.0089,0.03189 0.01159,0.01159 0.01415,-0.01405 0.02051,-0.03075 0.01414,-0.03713 z m 0.127604,-0.289342 c 0,-0.01139 -0.009,-0.0067 -0.02007,0.01035 -0.01104,0.01708 -0.02007,0.04038 -0.02007,0.05177 0,0.01139 0.009,0.0067 0.02007,-0.01035 0.01104,-0.01708 0.02007,-0.04038 0.02007,-0.05177 z m 0.04995,-0.104608 c 0.0071,-0.01843 0.0036,-0.02674 -0.0081,-0.01948 -0.01126,0.007 -0.02047,0.02142 -0.02047,0.03214 0,0.02979 0.01484,0.02322 0.02861,-0.01265 z m 0.157116,-0.371641 c 0,-0.01139 -0.009,-0.0067 -0.02007,0.01035 -0.01104,0.01708 -0.02007,0.04038 -0.02007,0.05177 0,0.01139 0.009,0.0067 0.02007,-0.01035 0.01104,-0.01708 0.02007,-0.04038 0.02007,-0.05177 z m 0.06212,-0.144945 c 0,-0.01139 -0.009,-0.0067 -0.02007,0.01035 -0.01104,0.01708 -0.02007,0.04038 -0.02007,0.05177 0,0.01139 0.009,0.0067 0.02007,-0.01035 0.01104,-0.01708 0.02007,-0.04038 0.02007,-0.05177 z m 0.2037,-0.476796 c -0.0064,-0.0064 -0.01795,0.0051 -0.02573,0.02554 -0.01124,0.02951 -0.0089,0.03189 0.01159,0.01159 0.01415,-0.01405 0.02051,-0.03075 0.01414,-0.03713 z M 8.5260346,5.9899755 C 9.4227995,5.0970529 10.214012,4.3127716 10.284285,4.2471282 c 0.119726,-0.1118401 0.128345,-0.1163199 0.136948,-0.071181 0.0058,0.030673 0.0102,0.019055 0.012,-0.031987 l 0.0028,-0.080157 -0.150122,0.141089 c -0.08257,0.077599 -0.883907,0.8682681 -1.7807554,1.7570426 l -1.6306334,1.6159535 0.00502,1.3462573 0.00502,1.3462574 0.00548,-1.3284656 0.00548,-1.3284653 z m 7.7693114,4.0526555 c 0,-0.01139 -0.009,-0.0067 -0.02007,0.01035 -0.01104,0.01708 -0.02007,0.04038 -0.02007,0.05177 0,0.01139 0.009,0.0067 0.02007,-0.01035 0.01104,-0.01708 0.02007,-0.04038 0.02007,-0.05177 z m -5.40375,-1.6143751 c 0,-0.00529 -0.02097,-0.019784 -0.04659,-0.032202 -0.04474,-0.02168 -0.04499,-0.021298 -0.0064,0.00962 0.04225,0.033846 0.05299,0.038422 0.05299,0.022577 z m -0.134592,-0.08573 c -0.05304,-0.040879 -0.113886,-0.074381 -0.113886,-0.062705 0,0.010525 0.129578,0.095393 0.144945,0.094934 0.0057,-1.704e-4 -0.0083,-0.014673 -0.03106,-0.032228 z M 10.580999,8.2243368 c 0,-0.00356 -0.03028,-0.033847 -0.0673,-0.067296 l -0.0673,-0.060817 0.06082,0.067296 c 0.05669,0.062729 0.07377,0.076814 0.07377,0.060817 z M 10.128026,7.6455135 c -0.02045,-0.020298 -0.02283,-0.017919 -0.01159,0.011591 0.0078,0.020421 0.01935,0.031913 0.02573,0.025538 0.0064,-0.00638 1.3e-5,-0.023083 -0.01414,-0.037129 z m -0.02984,-1.7791158 c -0.0066,-0.016518 -0.01152,-0.011612 -0.01251,0.01251 -8.99e-4,0.021828 0.004,0.034058 0.01087,0.027177 0.0069,-0.00688 0.0076,-0.02474 0.0016,-0.039687 z m 0.02071,-0.1035323 c -0.0066,-0.016518 -0.01152,-0.011612 -0.01251,0.01251 -8.99e-4,0.021828 0.004,0.034058 0.01088,0.027177 0.0069,-0.00688 0.0076,-0.02474 0.0016,-0.039688 z m 0.02071,-0.1035323 c -0.0066,-0.016518 -0.01152,-0.011612 -0.01251,0.01251 -9e-4,0.021828 0.004,0.034058 0.01088,0.027177 0.0069,-0.00688 0.0076,-0.02474 0.0016,-0.039688 z m 0.02071,-0.1035322 c -0.0066,-0.016518 -0.01152,-0.011612 -0.01251,0.01251 -8.99e-4,0.021828 0.004,0.034058 0.01088,0.027177 0.0069,-0.00688 0.0076,-0.02474 0.0016,-0.039687 z m 0.06212,-0.3313033 c -0.0066,-0.016518 -0.01152,-0.011612 -0.01251,0.01251 -8.99e-4,0.021828 0.004,0.034058 0.01088,0.027177 0.0069,-0.00688 0.0076,-0.02474 0.0016,-0.039687 z m 0.04307,-0.2031821 c 0,-0.046176 -0.0017,-0.045058 -0.01581,0.010353 -0.0087,0.034166 -0.01581,0.085414 -0.01581,0.1138855 0,0.046176 0.0017,0.045057 0.01581,-0.010353 0.0087,-0.034166 0.01581,-0.085414 0.01581,-0.1138855 z m 0.01861,-0.1294154 c -0.0057,-0.014236 -0.01044,-0.00259 -0.01044,0.025883 0,0.028471 0.0047,0.040119 0.01044,0.025883 0.0057,-0.014236 0.0057,-0.03753 0,-0.051766 z m 0.02114,-0.081532 c -0.0066,-0.016518 -0.01152,-0.011612 -0.01251,0.01251 -8.99e-4,0.021828 0.004,0.034058 0.01088,0.027177 0.0069,-0.00688 0.0076,-0.02474 0.0016,-0.039687 z m 0.02071,-0.1035323 c -0.0066,-0.016518 -0.01152,-0.011612 -0.01251,0.01251 -8.99e-4,0.021828 0.004,0.034058 0.01088,0.027177 0.0069,-0.00688 0.0076,-0.02474 0.0016,-0.039687 z m 0.02071,-0.1242388 c -0.0066,-0.016518 -0.01152,-0.011612 -0.01251,0.01251 -8.99e-4,0.021828 0.004,0.034058 0.01088,0.027177 0.0069,-0.00688 0.0076,-0.02474 0.0016,-0.039688 z m 0.02071,-0.1035322 c -0.0066,-0.016518 -0.01152,-0.011612 -0.01251,0.01251 -9e-4,0.021828 0.004,0.034058 0.01088,0.027177 0.0069,-0.00688 0.0076,-0.02474 0.0016,-0.039687 z m 0.02091,-0.1147857 c -0.0053,-0.020147 -0.0099,-0.00868 -0.01031,0.025489 -4.22e-4,0.034166 0.0039,0.050649 0.0095,0.03663 0.0057,-0.014019 0.006,-0.041973 7.68e-4,-0.062119 z M 10.408354,4.25 c -0.0057,-0.014236 -0.01044,-0.00259 -0.01044,0.025883 0,0.028471 0.0047,0.040119 0.01044,0.025883 0.0057,-0.014236 0.0057,-0.03753 0,-0.051766 z"
     id="path15" />
  <path
     style="fill:#afafaf;fill-opacity:1;stroke-width:0.0207065"
     d="M 6.8498731,16.470357 C 6.6641285,16.443113 6.3501666,16.330193 6.1701438,16.225885 5.7066188,15.95731 5.3763109,15.537302 5.188487,14.977643 l -0.053286,-0.158777 8.32e-5,-3.671918 C 5.1353757,7.1147528 5.1311283,7.2581742 5.2596806,6.9464317 5.2946541,6.8616199 5.3664845,6.7268882 5.4193036,6.6470277 5.4909585,6.5386887 6.2418061,5.7743461 8.3769527,3.6362209 11.02142,0.98806524 11.241508,0.77280191 11.277323,0.79943653 c 0.02131,0.0158519 0.164656,0.15927236 0.318536,0.31871207 0.413354,0.4282896 0.701973,0.8297153 0.845174,1.1755109 0.08777,0.2119298 0.07745,0.3860187 -0.06529,1.1021992 -0.172739,0.8666898 -0.651896,3.2998209 -0.667072,3.3873535 l -0.01289,0.074321 0.377716,0.013682 c 0.207744,0.00752 1.360025,0.013682 2.560626,0.013682 h 2.18291 l 0.158776,0.054443 c 0.534078,0.1831318 0.930277,0.5400278 1.131819,1.0195419 0.121318,0.2886416 0.1244,0.3169281 0.1244,1.1416053 0,0.8611217 0.0048,0.827964 -0.184713,1.2780216 -0.319859,0.759634 -2.157256,4.981184 -2.264609,5.203099 -0.0808,0.167016 -0.123474,0.225068 -0.282724,0.384557 -0.213739,0.21406 -0.380585,0.320227 -0.697107,0.443579 l -0.212842,0.08295 -3.811159,-0.0025 c -2.0961366,-0.0014 -3.8641899,-0.0103 -3.9290069,-0.01981 z m 0.080432,-1.959914 c -0.00525,-0.02015 -0.00989,-0.0087 -0.010313,0.02549 -4.22e-4,0.03416 0.00387,0.05065 0.00955,0.03663 0.00567,-0.01402 0.00602,-0.04197 7.672e-4,-0.06212 z M 14.4403,14.327792 c 0.0071,-0.01843 0.0036,-0.02674 -0.0081,-0.01949 -0.01126,0.007 -0.02047,0.02142 -0.02047,0.03214 0,0.02978 0.01484,0.02322 0.02861,-0.01265 z m -7.5304371,-0.1594 c -0.00494,-0.02562 -0.00897,-0.0047 -0.00897,0.04659 0,0.05125 0.00404,0.07221 0.00897,0.04659 0.00494,-0.02562 0.00494,-0.06756 0,-0.09318 z M 14.57671,13.997564 c 0,-0.01139 -0.009,-0.0067 -0.02007,0.01035 -0.01104,0.01708 -0.02007,0.04038 -0.02007,0.05177 0,0.01139 0.009,0.0067 0.02007,-0.01035 0.01104,-0.01708 0.02007,-0.04038 0.02007,-0.05177 z m 0.08283,-0.186358 c 0,-0.01139 -0.009,-0.0067 -0.02007,0.01035 -0.01104,0.01708 -0.02007,0.04038 -0.02007,0.05177 0,0.01139 0.009,0.0067 0.02007,-0.01035 0.01104,-0.01708 0.02007,-0.04038 0.02007,-0.05177 z m 0.06212,-0.144945 c 0,-0.01139 -0.009,-0.0067 -0.02007,0.01035 -0.01104,0.01708 -0.02007,0.04038 -0.02007,0.05177 0,0.01139 0.009,0.0067 0.02007,-0.01035 0.01104,-0.01708 0.02007,-0.04038 0.02007,-0.05177 z m 0.268155,-0.610841 c 0.02325,-0.04881 0.02281,-0.04947 -0.0075,-0.01157 -0.01771,0.02211 -0.0322,0.04928 -0.0322,0.06039 0,0.02631 0.0096,0.01456 0.03975,-0.04882 z m 0.07168,-0.156374 c 0.0071,-0.01843 0.0036,-0.02674 -0.0081,-0.01948 -0.01126,0.007 -0.02047,0.02142 -0.02047,0.03214 0,0.02979 0.01484,0.02322 0.02861,-0.01265 z m 0.215871,-0.517133 c -0.0064,-0.0064 -0.01795,0.0051 -0.02573,0.02554 -0.01124,0.02951 -0.0089,0.03189 0.01159,0.01159 0.01415,-0.01405 0.02051,-0.03075 0.01414,-0.03713 z m 0.06212,-0.144946 c -0.0064,-0.0064 -0.01795,0.0051 -0.02573,0.02554 -0.01124,0.02951 -0.0089,0.03189 0.01159,0.01159 0.01415,-0.01405 0.02051,-0.03075 0.01414,-0.03713 z m 0.479613,-1.096894 c 0,-0.01139 -0.009,-0.0067 -0.02007,0.01035 -0.01104,0.01708 -0.02007,0.04038 -0.02007,0.05177 0,0.01139 0.009,0.0067 0.02007,-0.01035 0.01104,-0.01708 0.02007,-0.04038 0.02007,-0.05177 z m 0.2037,-0.476796 c -0.0064,-0.0064 -0.01795,0.0051 -0.02573,0.02554 -0.01124,0.02951 -0.0089,0.03189 0.01159,0.01159 0.01415,-0.01405 0.02051,-0.03075 0.01414,-0.03713 z m 0.272548,-0.620646 c 0,-0.01139 -0.009,-0.0067 -0.02007,0.01035 -0.01104,0.01708 -0.02007,0.04038 -0.02007,0.05177 0,0.01139 0.009,0.0067 0.02007,-0.01035 0.01104,-0.01708 0.02007,-0.04038 0.02007,-0.05177 z M 8.5414129,5.9725762 C 10.447573,4.0770394 10.408303,4.1147775 10.421525,4.1658479 c 0.0053,0.020659 0.01081,0.00517 0.01213,-0.034424 l 0.0024,-0.071987 -0.170671,0.1651659 C 10.171515,4.315444 9.6101108,4.8705818 9.0178194,5.4582426 8.4255278,6.0459034 7.7009896,6.7625894 7.4077345,7.0508784 l -0.5331913,0.524162 0.00488,1.0267306 0.00488,1.0267308 0.010646,-1.0146163 0.010646,-1.0146163 z m 2.2466501,2.3952133 c 0,-0.00438 -0.02562,-0.023573 -0.05694,-0.042642 l -0.05694,-0.03467 0.04888,0.042642 c 0.0477,0.041611 0.065,0.050839 0.065,0.03467 z M 10.560292,8.2029657 c 0,-0.00393 -0.02097,-0.024895 -0.04659,-0.046589 l -0.04659,-0.039446 0.03945,0.046589 c 0.03707,0.043783 0.05373,0.056016 0.05373,0.039446 z m -0.462103,-2.336568 c -0.0066,-0.016518 -0.01152,-0.011612 -0.01251,0.01251 -8.99e-4,0.021828 0.004,0.034058 0.01087,0.027177 0.0069,-0.00688 0.0076,-0.02474 0.0016,-0.039687 z m 0.02071,-0.1035323 c -0.0066,-0.016518 -0.01152,-0.011612 -0.01251,0.01251 -8.99e-4,0.021828 0.004,0.034058 0.01088,0.027177 0.0069,-0.00688 0.0076,-0.02474 0.0016,-0.039688 z m 0.04141,-0.2070645 c -0.0066,-0.016518 -0.01152,-0.011612 -0.01251,0.01251 -8.99e-4,0.021828 0.004,0.034058 0.01088,0.027177 0.0069,-0.00688 0.0076,-0.02474 0.0016,-0.039687 z m 0.08283,-0.4348356 c -0.0066,-0.016518 -0.01152,-0.011612 -0.01251,0.01251 -8.99e-4,0.021828 0.004,0.034058 0.01087,0.027177 0.0069,-0.00688 0.0076,-0.02474 0.0016,-0.039687 z m 0.0207,-0.1035323 c -0.0066,-0.016518 -0.01152,-0.011612 -0.01251,0.01251 -8.99e-4,0.021828 0.004,0.034058 0.01088,0.027177 0.0069,-0.00688 0.0076,-0.02474 0.0016,-0.039688 z m 0.02071,-0.1035323 c -0.0066,-0.016518 -0.01152,-0.011612 -0.01251,0.01251 -8.99e-4,0.021828 0.004,0.034058 0.01088,0.027177 0.0069,-0.00688 0.0076,-0.02474 0.0016,-0.039688 z m 0.08283,-0.4348355 c -0.0066,-0.016518 -0.01152,-0.011612 -0.01251,0.01251 -9e-4,0.021828 0.004,0.034058 0.01088,0.027177 0.0069,-0.00688 0.0076,-0.02474 0.0016,-0.039687 z m 0.02071,-0.1035323 c -0.0066,-0.016518 -0.01152,-0.011612 -0.01251,0.01251 -8.99e-4,0.021828 0.004,0.034058 0.01087,0.027177 0.0069,-0.00688 0.0076,-0.02474 0.0016,-0.039687 z M 10.4088,4.2720006 c -0.0066,-0.016518 -0.01152,-0.011612 -0.01251,0.01251 -8.99e-4,0.021828 0.004,0.034058 0.01088,0.027177 0.0069,-0.00688 0.0076,-0.02474 0.0016,-0.039687 z"
     id="path16" />
  <path
     style="fill:#afafaf;fill-opacity:1;stroke-width:0.0207065"
     d="M 6.8488201,16.470225 C 6.4128141,16.406359 5.9309475,16.133734 5.6305337,15.780958 5.4566689,15.576789 5.3398695,15.373852 5.2257431,15.077644 L 5.1366963,14.846529 5.1360319,11.16078 C 5.1352949,7.0721273 5.1299126,7.2433867 5.2692519,6.9218507 5.3080756,6.8322619 5.3836237,6.6964476 5.4371366,6.6200412 5.4994452,6.5310764 6.5589868,5.4554325 8.3835935,3.6288063 9.9506319,2.0600335 11.239241,0.77649208 11.247169,0.77649208 c 0.02785,0 0.557714,0.55426152 0.704402,0.73683412 0.303926,0.3782757 0.498884,0.7285813 0.540413,0.9710267 0.02929,0.1710017 0.03064,0.1627878 -0.308353,1.8794649 -0.446056,2.2588612 -0.488538,2.4825135 -0.474256,2.4967995 0.0077,0.00766 1.175556,0.018585 2.595331,0.024279 l 2.581408,0.010353 0.165652,0.066914 c 0.653675,0.2640493 1.098799,0.8031009 1.171384,1.4185626 0.03616,0.3066073 0.0142,1.4613001 -0.03074,1.6166532 -0.04967,0.1716869 -0.244562,0.6269119 -1.796771,4.1968949 -0.695823,1.60035 -0.666562,1.542461 -0.895646,1.77189 -0.211799,0.212118 -0.380372,0.320032 -0.694335,0.444485 l -0.20697,0.08204 -3.81548,-0.0025 c -2.0985145,-0.0014 -3.8689867,-0.01036 -3.9343829,-0.01994 z m 0.08085,-1.949823 c -0.00574,-0.01424 -0.010444,-0.0026 -0.010444,0.02588 0,0.02847 0.0047,0.04012 0.010444,0.02588 0.00574,-0.01424 0.00574,-0.03753 0,-0.05177 z m 7.7176949,-0.668859 c 0.0071,-0.01843 0.0036,-0.02674 -0.0081,-0.01948 -0.01126,0.007 -0.02047,0.02142 -0.02047,0.03214 0,0.02979 0.01484,0.02322 0.02861,-0.01265 z m 0.07429,-0.185282 c 0,-0.01139 -0.009,-0.0067 -0.02007,0.01035 -0.01104,0.01708 -0.02007,0.04038 -0.02007,0.05177 0,0.01139 0.009,0.0067 0.02007,-0.01035 0.01104,-0.01708 0.02007,-0.04038 0.02007,-0.05177 z M 6.8900528,7.9992475 c -0.00333,-0.2313766 -0.00607,-0.047969 -0.00607,0.4075735 -5.6e-6,0.455542 0.00272,0.6448501 0.00606,0.4206847 0.00334,-0.2241654 0.00334,-0.5968816 1e-5,-0.8282582 z M 7.4129111,7.091961 c 0,-0.011389 -0.00411,-0.020706 -0.00913,-0.020706 -0.00502,0 -0.01489,0.00932 -0.021929,0.020706 -0.00704,0.011389 -0.00293,0.020706 0.00913,0.020706 0.012061,0 0.021929,-0.00932 0.021929,-0.020706 z m 0.616017,-0.6142566 c 0.1167327,-0.1186101 0.2122412,-0.221839 0.2122412,-0.2293975 0,-0.016868 -0.4666461,0.4364824 -0.5380334,0.5227041 -0.050559,0.061065 -0.050031,0.060933 0.03106,-0.00777 0.04537,-0.038437 0.1779999,-0.1669303 0.2947325,-0.2855402 z M 8.4482339,6.0566382 c 0.01219,-0.022777 0.018621,-0.041413 0.014291,-0.041413 -0.00433,0 -0.024738,0.018636 -0.045351,0.041413 -0.020613,0.022777 -0.027044,0.041413 -0.014291,0.041413 0.012753,0 0.033161,-0.018636 0.045351,-0.041413 z M 10.243134,5.1209653 c -0.0066,-0.016518 -0.01152,-0.011612 -0.01251,0.01251 -8.99e-4,0.021828 0.004,0.034058 0.01087,0.027177 0.0069,-0.00688 0.0076,-0.02474 0.0016,-0.039687 z M 10.26384,5.017433 c -0.0066,-0.016518 -0.01152,-0.011612 -0.01251,0.01251 -8.99e-4,0.021828 0.004,0.034058 0.01088,0.027177 0.0069,-0.00688 0.0076,-0.02474 0.0016,-0.039688 z m 0.158325,-0.8611372 c 0.0058,0.014525 0.01136,7.84e-4 0.01225,-0.030534 8.99e-4,-0.031318 -8.61e-4,-0.056943 -0.0039,-0.056943 -0.0031,0 -0.103218,0.099569 -0.222594,0.2212644 L 9.9908648,4.5113471 10.201205,4.3206173 c 0.13287,-0.1204822 0.214252,-0.1810034 0.22096,-0.1643215 z m -0.03409,0.2192371 c -0.0066,-0.016518 -0.01152,-0.011612 -0.01251,0.01251 -8.99e-4,0.021828 0.004,0.034058 0.01087,0.027177 0.0069,-0.00688 0.0076,-0.02474 0.0016,-0.039687 z"
     id="path17" />
  <path
     style="fill:#afafaf;fill-opacity:1;stroke-width:0.0207065"
     d="M 6.8465817,16.469945 C 6.6706103,16.444239 6.3425512,16.326509 6.1672526,16.226156 5.7236451,15.972203 5.4132412,15.587329 5.2097748,15.038968 l -0.074574,-0.200984 8.32e-5,-3.681477 c 7.21e-5,-3.1848724 0.0043,-3.7074955 0.031366,-3.8743622 0.031852,-0.1963992 0.094963,-0.374923 0.1916745,-0.5421935 0.029631,-0.051249 0.052819,-0.094877 0.05153,-0.096951 -0.013555,-0.021816 5.8035475,-5.86650782 5.8388155,-5.86650782 0.0279,0 0.555939,0.55392942 0.705624,0.74022762 0.259673,0.3231899 0.451495,0.6460074 0.519017,0.8734575 0.06369,0.2145485 0.08735,0.066432 -0.431493,2.701458 -0.175143,0.889491 -0.321564,1.6498691 -0.32538,1.689729 l -0.0069,0.072473 0.403775,0.011023 c 0.222077,0.00606 1.375181,0.013256 2.562452,0.015985 l 2.158676,0.00496 0.150094,0.053897 c 0.422309,0.1516474 0.74404,0.3927101 0.963185,0.7216842 0.105801,0.1588247 0.151028,0.2505365 0.224649,0.455542 l 0.05949,0.1656516 1.07e-4,0.7764921 c 7.7e-5,0.5597003 -0.0073,0.8080166 -0.02646,0.8894052 -0.03837,0.1630723 -0.149592,0.4256273 -1.381955,3.2622393 -0.897981,2.06694 -1.057135,2.423138 -1.135336,2.540953 -0.103865,0.156478 -0.349873,0.386397 -0.523443,0.489207 -0.07821,0.04633 -0.237567,0.121936 -0.354126,0.168021 l -0.211925,0.08379 -3.81548,-0.0025 c -2.0985142,-0.0014 -3.8699937,-0.01049 -3.936621,-0.02022 z m 7.8750743,-2.803684 c 0,-0.01139 -0.009,-0.0067 -0.02007,0.01035 -0.01104,0.01708 -0.02007,0.04038 -0.02007,0.05177 0,0.01139 0.009,0.0067 0.02007,-0.01035 0.01104,-0.01708 0.02007,-0.04038 0.02007,-0.05177 z M 6.8886881,8.8067144 c -0.00661,-0.016518 -0.011517,-0.011612 -0.01251,0.01251 -8.991e-4,0.021828 0.00399,0.034058 0.010875,0.027177 0.00688,-0.00688 0.00762,-0.02474 0.00163,-0.039687 z m 0.00131,-0.6949604 c -0.00366,-0.122427 -0.00666,-0.022259 -0.00666,0.2225944 0,0.2448538 0.003,0.3450213 0.00666,0.2225944 0.00366,-0.122427 0.00366,-0.3227619 0,-0.4451888 z M 7.7235079,6.771011 c 0.026748,-0.028471 0.043973,-0.051766 0.038279,-0.051766 -0.00569,0 -0.032238,0.023295 -0.058985,0.051766 -0.026748,0.028471 -0.043973,0.051766 -0.038279,0.051766 0.00569,0 0.032237,-0.023295 0.058985,-0.051766 z M 8.1169306,6.3775883 c 0.038634,-0.03986 0.065584,-0.072473 0.05989,-0.072473 -0.00569,0 -0.041963,0.032613 -0.080596,0.072473 -0.038634,0.03986 -0.065584,0.072473 -0.05989,0.072473 0.00569,0 0.041963,-0.032613 0.080596,-0.072473 z M 10.419741,4.1580441 c 0.0093,0.014632 0.01581,0.0015 0.016,-0.032283 1.74e-4,-0.031318 -0.0022,-0.056943 -0.0052,-0.056943 -0.0031,0 -0.103218,0.099451 -0.222594,0.2210017 L 9.9908648,4.5108218 10.197463,4.322103 c 0.138655,-0.1266554 0.211755,-0.180609 0.222278,-0.1640589 z"
     id="path18" />
  <path
     style="fill:#afafaf;fill-opacity:1;stroke-width:0.0207065"
     d="M 6.86419,16.471065 C 6.6729121,16.445854 6.3648986,16.3382 6.173389,16.229624 5.7251419,15.975489 5.4151397,15.592446 5.2097748,15.038968 L 5.135201,14.837984 5.1353474,11.156507 C 5.1355042,7.2148959 5.1346818,7.2483737 5.2377333,6.9884287 5.3006773,6.8296543 5.395229,6.6650595 5.4934727,6.54324 5.593564,6.4191296 11.225814,0.77649208 11.249605,0.77649208 c 0.02819,0 0.552844,0.55124392 0.705578,0.74133512 0.258783,0.322079 0.450691,0.6451861 0.518128,0.87235 0.06278,0.2114764 0.0747,0.1340369 -0.361882,2.3516011 -0.136768,0.6947016 -0.276578,1.4075213 -0.310687,1.5840439 -0.03411,0.1765225 -0.07035,0.3628806 -0.08053,0.4141291 -0.01114,0.056062 -0.01092,0.1008646 5.41e-4,0.1124729 0.01148,0.011629 1.028931,0.022336 2.561145,0.026952 l 2.542095,0.00766 0.155299,0.05312 c 0.581222,0.1988085 0.984671,0.5933309 1.188108,1.1618208 l 0.06463,0.1806081 V 9.090134 9.8976857 l -0.05507,0.1552983 c -0.06179,0.174252 -0.294143,0.720105 -0.907857,2.132765 -0.230064,0.529568 -0.551718,1.270341 -0.714786,1.646163 -0.594901,1.371063 -0.792371,1.808613 -0.866959,1.920984 -0.103133,0.155377 -0.349565,0.385472 -0.52263,0.487983 -0.07821,0.04633 -0.237567,0.121936 -0.354126,0.168021 l -0.211925,0.08379 -3.805127,-0.0026 c -2.09282,-0.0014 -3.8610347,-0.01 -3.929366,-0.019 z M 6.889522,8.3291717 c -0.00459,-0.037013 -0.00835,-0.00673 -0.00835,0.067296 0,0.074026 0.00376,0.1043088 0.00835,0.067296 0.00459,-0.037013 0.00459,-0.097579 0,-0.134592 z M 7.7235079,6.771011 c 0.026748,-0.028471 0.043973,-0.051766 0.038279,-0.051766 -0.00569,0 -0.032238,0.023295 -0.058985,0.051766 -0.026748,0.028471 -0.043973,0.051766 -0.038279,0.051766 0.00569,0 0.032237,-0.023295 0.058985,-0.051766 z M 8.1169306,6.3775883 c 0.038634,-0.03986 0.065584,-0.072473 0.05989,-0.072473 -0.00569,0 -0.041963,0.032613 -0.080596,0.072473 -0.038634,0.03986 -0.065584,0.072473 -0.05989,0.072473 0.00569,0 0.041963,-0.032613 0.080596,-0.072473 z M 10.156516,4.3587089 c 0.06762,-0.068331 0.118284,-0.1242387 0.11259,-0.1242387 -0.0057,0 -0.06568,0.055907 -0.133296,0.1242387 -0.06762,0.068331 -0.118283,0.1242387 -0.112589,0.1242387 0.0057,0 0.06568,-0.055907 0.133295,-0.1242387 z m 0.279221,-0.2536541 c -2.48e-4,-0.036375 -0.0045,-0.039997 -0.01934,-0.016519 -0.01046,0.016539 -0.01443,0.037504 -0.0088,0.04659 0.01796,0.02906 0.02848,0.017824 0.02815,-0.030071 z"
     id="path19" />
  <path
     style="fill:#afafaf;fill-opacity:1;stroke-width:0.0207065"
     d="M 6.8569897,16.470393 C 6.6679182,16.445871 6.3732401,16.342144 6.1757714,16.230605 5.7413526,15.985224 5.4450884,15.632116 5.2343521,15.108555 l -0.088798,-0.220613 -0.00535,-3.702826 C 5.1357822,8.118467 5.1397849,7.4492199 5.1635061,7.2898075 5.1953936,7.0755162 5.2848523,6.8456024 5.4137491,6.6466689 5.4682037,6.5626262 6.4208444,5.594619 8.3633275,3.6495128 9.9413579,2.0693514 11.241967,0.7765163 11.253569,0.7765459 c 0.02576,6.572e-5 0.496485,0.4911549 0.675325,0.7045375 0.250089,0.2983952 0.478201,0.6820158 0.547697,0.9210731 0.05933,0.2040895 0.06471,0.1702745 -0.405811,2.5496869 -0.233607,1.1813346 -0.344877,1.7594359 -0.354132,1.839874 l -0.0071,0.062119 0.631547,0.010353 c 0.34735,0.00569 1.501115,0.013126 2.563921,0.016516 l 1.932376,0.00616 0.148623,0.053367 c 0.586839,0.2107192 0.979161,0.596501 1.181434,1.1617394 l 0.06463,0.1806081 V 9.090134 9.8976857 l -0.0579,0.1637603 c -0.07439,0.210394 -0.828446,1.961061 -2.074441,4.816142 -0.365774,0.838139 -0.384969,0.872989 -0.59991,1.089185 -0.21151,0.212743 -0.382237,0.322914 -0.688751,0.444454 l -0.202629,0.08035 -3.809987,-0.0021 c -2.0954937,-0.0011 -3.8691358,-0.0097 -3.9414273,-0.01911 z M 7.7338611,6.7606577 c 0.020613,-0.022777 0.032819,-0.041413 0.027125,-0.041413 -0.00569,0 -0.027218,0.018636 -0.047832,0.041413 -0.020613,0.022777 -0.032819,0.041413 -0.027125,0.041413 0.00569,0 0.027219,-0.018636 0.047832,-0.041413 z M 8.1169306,6.3775883 c 0.038634,-0.03986 0.065584,-0.072473 0.05989,-0.072473 -0.00569,0 -0.041963,0.032613 -0.080596,0.072473 -0.038634,0.03986 -0.065584,0.072473 -0.05989,0.072473 0.00569,0 0.041963,-0.032613 0.080596,-0.072473 z M 10.16687,4.3483557 c 0.06186,-0.062637 0.107812,-0.1138855 0.102117,-0.1138855 -0.0057,0 -0.06096,0.051248 -0.122824,0.1138855 -0.06186,0.062637 -0.107812,0.1138855 -0.102117,0.1138855 0.0057,0 0.06096,-0.051248 0.122824,-0.1138855 z m 0.269184,-0.2422656 c 0,-0.03345 -0.0061,-0.039431 -0.02304,-0.022511 -0.01267,0.012674 -0.01678,0.033173 -0.0091,0.045554 0.02142,0.034656 0.03218,0.026952 0.03218,-0.023044 z"
     id="path20" />
  <path
     style="fill:#afafaf;fill-opacity:1;stroke-width:0.0207065"
     d="M 6.8569897,16.470393 C 6.6694365,16.446068 6.3708524,16.341473 6.1824191,16.23409 5.7279761,15.975114 5.4535096,15.647168 5.2348569,15.101893 L 5.135201,14.853372 5.1353474,11.164201 C 5.1355042,7.2143132 5.1346682,7.248408 5.2377333,6.9884287 5.3006773,6.8296543 5.395229,6.6650595 5.4934727,6.54324 5.6117992,6.3965184 11.228087,0.77649208 11.256385,0.77649208 c 0.0265,0 0.483419,0.47898332 0.675232,0.70784272 0.241946,0.2886749 0.473299,0.6755677 0.541693,0.9058769 0.06624,0.2230572 0.104383,-0.010296 -0.503838,3.082512 -0.13729,0.698122 -0.249618,1.2965666 -0.249618,1.3298764 v 0.060563 l 0.740256,0.00569 c 0.40714,0.00313 1.561247,0.00833 2.56468,0.011554 l 1.824425,0.00586 0.156912,0.060421 c 0.584332,0.2250061 0.943932,0.5782982 1.157978,1.1376642 l 0.06793,0.1775196 v 0.817905 c 0,0.9059418 0.0089,0.8332072 -0.150262,1.2216811 -0.216986,0.529455 -2.153051,4.978196 -2.288876,5.259439 -0.09363,0.193876 -0.126454,0.238718 -0.303123,0.414129 -0.222096,0.220516 -0.335894,0.294606 -0.655113,0.426525 l -0.220534,0.09114 -3.812849,-0.0026 c -2.0970664,-0.0014 -3.8719958,-0.0103 -3.9442873,-0.01967 z M 7.7338611,6.7606577 c 0.020613,-0.022777 0.032819,-0.041413 0.027125,-0.041413 -0.00569,0 -0.027218,0.018636 -0.047832,0.041413 -0.020613,0.022777 -0.032819,0.041413 -0.027125,0.041413 0.00569,0 0.027219,-0.018636 0.047832,-0.041413 z M 8.10788,6.3827649 8.168697,6.3154689 8.101401,6.3762859 c -0.037013,0.033449 -0.067296,0.063732 -0.067296,0.067296 0,0.015997 0.017086,0.00191 0.073775,-0.060817 z m 2.069343,-2.0447625 c 0.05609,-0.056943 0.09732,-0.1035322 0.09162,-0.1035322 -0.0057,0 -0.05624,0.04659 -0.112329,0.1035322 -0.05609,0.056943 -0.09732,0.1035323 -0.09162,0.1035323 0.0057,0 0.05624,-0.046589 0.112329,-0.1035323 z m 0.258831,-0.2186398 c 0,-0.017755 -0.0095,-0.026429 -0.02105,-0.019276 -0.01157,0.00715 -0.01568,0.02168 -0.0091,0.032282 0.01775,0.028721 0.03018,0.023365 0.03018,-0.013006 z"
     id="path21" />
</svg>
