<?xml version="1.0" encoding="UTF-8" standalone="no"?>
<svg
   width="14"
   height="18"
   viewBox="0 0 14 18"
   fill="none"
   version="1.1"
   id="svg1"
   sodipodi:docname="icon-delete-lighter-filled.svg"
   inkscape:version="1.3.2 (091e20e, 2023-11-25, custom)"
   xmlns:inkscape="http://www.inkscape.org/namespaces/inkscape"
   xmlns:sodipodi="http://sodipodi.sourceforge.net/DTD/sodipodi-0.dtd"
   xmlns="http://www.w3.org/2000/svg"
   xmlns:svg="http://www.w3.org/2000/svg">
  <defs
     id="defs1" />
  <sodipodi:namedview
     id="namedview1"
     pagecolor="#ffffff"
     bordercolor="#000000"
     borderopacity="0.25"
     inkscape:showpageshadow="2"
     inkscape:pageopacity="0.0"
     inkscape:pagecheckerboard="0"
     inkscape:deskcolor="#d1d1d1"
     inkscape:zoom="45.611111"
     inkscape:cx="7.0048721"
     inkscape:cy="9"
     inkscape:window-width="1920"
     inkscape:window-height="1017"
     inkscape:window-x="-8"
     inkscape:window-y="-8"
     inkscape:window-maximized="1"
     inkscape:current-layer="svg1" />
  <path
     d="M1 16C1 17.1 1.9 18 3 18H11C12.1 18 13 17.1 13 16V4H1V16ZM3 6H11V16H3V6ZM10.5 1L9.5 0H4.5L3.5 1H0V3H14V1H10.5Z"
     fill="#AFAFAF"
     id="path1" />
  <path
     style="fill:#afafaf;fill-opacity:1;stroke-width:0.0219245"
     d="M 3.0036541,11.00609 V 6.0182704 H 6.9939099 10.984166 V 11.00609 15.99391 H 6.9939099 3.0036541 Z"
     id="path2" />
  <path
     style="fill:#afafaf;fill-opacity:1;stroke-width:0.0219245"
     d="M 2.6084466,17.946694 C 1.8652792,17.78909 1.2820579,17.236049 1.0693174,16.487211 l -0.049829,-0.175396 -0.00575,-6.155299 -0.00575,-6.155298 h 5.9858753 5.9858753 l -0.0061,6.188185 c -0.0058,5.898955 -0.0079,6.194334 -0.04576,6.319732 -0.02183,0.07235 -0.0821,0.220341 -0.133943,0.328867 -0.258772,0.541734 -0.706007,0.917386 -1.297336,1.089688 l -0.172631,0.0503 -4.2643115,0.0042 c -4.0390326,0.004 -4.2741869,0.0021 -4.4512367,-0.03547 z m 8.3922104,-6.935123 -0.0054,-5.0042628 -0.0056,4.9933008 -0.0056,4.993301 H 6.9939099 3.0037488 l -0.00558,-4.993301 -0.00558,-4.9933008 -0.00543,5.0042628 -0.00543,5.004263 H 6.9939099 11.00609 Z"
     id="path3" />
  <path
     style="fill:#afafaf;fill-opacity:1;stroke-width:0.0219245"
     d="M 2.6892515,17.966258 C 1.9354719,17.838399 1.3181177,17.287073 1.0809596,16.529978 l -0.061471,-0.196239 -0.00578,-6.16626 -0.00578,-6.166261 H 6.9936139 12.9793 v 6.117855 c 0,6.775412 0.01084,6.27025 -0.142221,6.627253 -0.249452,0.581825 -0.712723,0.99435 -1.32672,1.181391 l -0.164433,0.05009 -4.2752749,0.0032 c -2.3514008,0.0018 -4.3230281,-0.0049 -4.3813941,-0.01478 z m 8.3114065,-6.812178 -0.0054,-4.8617536 -0.0056,4.8507916 -0.0056,4.850792 H 6.993918 3.0037677 l -0.0056,-4.149208 -0.0056,-4.1492087 -0.00542,4.1601707 -0.00542,4.16017 H 6.9939099 11.00609 Z M 2.997619,7.4821223 c -0.00488,-0.039406 -0.00897,-0.012451 -0.0091,0.0599 -1.23e-4,0.072351 0.00387,0.1045921 0.00887,0.071647 0.005,-0.032945 0.0051,-0.092141 2.238e-4,-0.1315469 z M 2.9968427,7.2953715 c -0.00551,-0.021102 -0.010027,-0.00384 -0.010027,0.038368 0,0.042205 0.00451,0.05947 0.010027,0.038368 0.00551,-0.021102 0.00551,-0.055633 0,-0.076736 z m -1.362e-4,-0.09729 c -0.007,-0.01749 -0.012194,-0.012295 -0.013246,0.013246 -9.52e-4,0.023112 0.00423,0.036061 0.011515,0.028776 0.00729,-0.00729 0.00806,-0.026195 0.00173,-0.042022 z m 0,-0.3727162 c -0.007,-0.01749 -0.012194,-0.012295 -0.013246,0.013246 -9.52e-4,0.023112 0.00423,0.036061 0.011515,0.028776 0.00729,-0.00729 0.00806,-0.026195 0.00173,-0.042022 z m 0,-0.2411693 c -0.007,-0.01749 -0.012194,-0.012295 -0.013246,0.013246 -9.52e-4,0.023112 0.00423,0.036061 0.011515,0.028776 0.00729,-0.00729 0.00806,-0.026195 0.00173,-0.042022 z M 10.999142,6.1895554 c -0.007,-0.01749 -0.01219,-0.012295 -0.01325,0.013246 -9.52e-4,0.023112 0.0042,0.036061 0.01152,0.028776 0.0073,-0.00729 0.0081,-0.026195 0.0017,-0.042022 z"
     id="path4" />
  <path
     style="fill:#afafaf;fill-opacity:1;stroke-width:0.0219245"
     d="M 2.6892515,17.966284 C 1.9376546,17.838614 1.337993,17.307186 1.0821171,16.542022 l -0.062319,-0.186358 -0.00597,-6.177223 -0.00597,-6.177223 h 5.9857215 5.9857214 v 6.117855 c 0,6.775412 0.01084,6.27025 -0.142221,6.627253 -0.243841,0.568739 -0.648883,0.942854 -1.249984,1.154539 l -0.219245,0.07721 -4.2862358,0.0031 c -2.35743,0.0017 -4.3339903,-0.005 -4.3923563,-0.01491 z m 8.3114175,-5.891375 -0.0054,-3.9409261 -0.0056,3.9299631 -0.0056,3.929964 H 6.9939342 3.0038227 l -0.00565,-2.767966 -0.00565,-2.767966 -0.0054,2.778928 -0.0054,2.778928 H 6.9939099 11.00609 Z M 2.9967065,10.333283 c -0.007,-0.01749 -0.012194,-0.01229 -0.013246,0.01325 -9.52e-4,0.02311 0.00423,0.03606 0.011515,0.02878 0.00729,-0.0073 0.00806,-0.0262 0.00173,-0.04202 z M 2.9962498,10.22229 c -0.00608,-0.01507 -0.011058,-0.0027 -0.011058,0.0274 0,0.03015 0.00498,0.04248 0.011058,0.02741 0.00608,-0.01507 0.00608,-0.03974 0,-0.05481 z m 4.567e-4,-0.19595 c -0.007,-0.01749 -0.012194,-0.01229 -0.013246,0.01325 -9.52e-4,0.02311 0.00423,0.03606 0.011515,0.02878 0.00729,-0.0073 0.00806,-0.0262 0.00173,-0.04202 z m 0,-0.087698 c -0.007,-0.01749 -0.012194,-0.012295 -0.013246,0.013246 -9.52e-4,0.023112 0.00423,0.036061 0.011515,0.028776 0.00729,-0.00729 0.00806,-0.026195 0.00173,-0.042022 z m 8.0031915,-1.96331 c -0.005,-0.033326 -0.0093,-0.011264 -0.0095,0.049029 -1.64e-4,0.060292 0.004,0.08756 0.0092,0.060594 0.0052,-0.026966 0.0053,-0.076296 2.99e-4,-0.1096224 z m -7.56e-4,-0.1195158 c -0.007,-0.01749 -0.01219,-0.012295 -0.01325,0.013246 -9.52e-4,0.023112 0.0042,0.036061 0.01152,0.028776 0.0073,-0.00729 0.0081,-0.026195 0.0017,-0.042022 z m 0,-0.1534714 c -0.007,-0.01749 -0.01219,-0.012295 -0.01325,0.013246 -9.52e-4,0.023112 0.0042,0.036061 0.01152,0.028776 0.0073,-0.00729 0.0081,-0.026195 0.0017,-0.042022 z"
     id="path5" />
  <path
     style="fill:#afafaf;fill-opacity:1;stroke-width:0.0219245"
     d="M 2.6892515,17.966284 C 1.9376055,17.838605 1.3380609,17.307363 1.0818701,16.542022 l -0.062382,-0.186358 -0.00581,-6.177223 -0.00581,-6.177223 h 5.9859434 5.9859435 l -0.0057,6.188185 c -0.0065,7.000442 0.01523,6.247409 -0.192171,6.673926 -0.243554,0.500873 -0.644065,0.848109 -1.200479,1.040796 l -0.213545,0.07395 -4.2862358,0.0031 c -2.35743,0.0017 -4.3339903,-0.005 -4.3923563,-0.01491 z m 8.3114355,-5.003434 -0.0054,-3.052984 -0.0056,3.042022 -0.0056,3.042022 H 6.9939667 3.0039213 l -0.00575,-1.715591 -0.00575,-1.715591 -0.00535,1.726553 -0.00535,1.726553 H 6.9939099 11.00609 Z M 2.9969231,12.382269 c -0.00556,-0.02133 -0.010473,-0.0092 -0.010919,0.02699 -4.469e-4,0.03618 0.0041,0.05363 0.010107,0.03878 0.00601,-0.01484 0.00637,-0.04444 8.12e-4,-0.06577 z m -6.733e-4,-0.2087 c -0.00608,-0.01507 -0.011058,-0.0027 -0.011058,0.0274 0,0.03015 0.00498,0.04248 0.011058,0.02741 0.00608,-0.01507 0.00608,-0.03974 0,-0.05481 z M 10.999672,9.7840559 c -0.0052,-0.027272 -0.0097,-0.010122 -0.01,0.038112 -2.44e-4,0.048234 0.004,0.070547 0.0095,0.049586 0.0055,-0.020962 0.0057,-0.060426 4.42e-4,-0.087698 z m -5.3e-4,-0.1304323 c -0.007,-0.01749 -0.01219,-0.012295 -0.01325,0.013246 -9.52e-4,0.023112 0.0042,0.036061 0.01152,0.028776 0.0073,-0.00729 0.0081,-0.026195 0.0017,-0.042022 z"
     id="path6" />
  <path
     style="fill:#afafaf;fill-opacity:1;stroke-width:0.0219245"
     d="m 2.6419001,17.956269 c -0.72764,-0.138392 -1.2765479,-0.628083 -1.551684,-1.384287 l -0.070728,-0.194394 -0.00578,-6.188185 -0.00578,-6.188185 h 5.9856841 5.9856848 v 6.114509 c 0,6.934124 0.01744,6.305556 -0.186578,6.72543 -0.252915,0.520515 -0.612387,0.840307 -1.186852,1.055841 l -0.216095,0.08108 -4.2971991,0.0037 c -3.498253,0.003 -4.3257323,-0.0017 -4.4506699,-0.0255 z m 0.3562518,-3.447743 c -0.00348,-0.27433 -0.00633,-0.04988 -0.00633,0.498782 0,0.54866 0.00285,0.773112 0.00633,0.498782 0.00348,-0.27433 0.00348,-0.723234 0,-0.997564 z m -0.00131,-0.613885 c -0.00551,-0.0211 -0.010027,-0.0038 -0.010027,0.03837 0,0.0422 0.00451,0.05947 0.010027,0.03837 0.00551,-0.0211 0.00551,-0.05563 0,-0.07673 z m -1.362e-4,-0.228837 c -0.007,-0.01749 -0.012194,-0.01229 -0.013246,0.01325 -9.52e-4,0.02311 0.00423,0.03606 0.011515,0.02878 0.00729,-0.0073 0.00806,-0.0262 0.00173,-0.04202 z m 8.0025723,-2.24863 c -0.0055,-0.0211 -0.01003,-0.0038 -0.01003,0.03837 0,0.04221 0.0045,0.05947 0.01003,0.03837 0.0055,-0.0211 0.0055,-0.05563 0,-0.07674 z m -1.37e-4,-0.119214 c -0.007,-0.01749 -0.01219,-0.01229 -0.01325,0.01325 -9.52e-4,0.02311 0.0042,0.03606 0.01152,0.02878 0.0073,-0.0073 0.0081,-0.02619 0.0017,-0.04202 z"
     id="path7" />
</svg>
